SplineFontDB: 3.0
FontName: Michroma
FullName: Michroma
FamilyName: Michroma
Weight: Book
Copyright: 
Version: 1.000
ItalicAngle: 0
UnderlinePosition: -103
UnderlineWidth: 102
Ascent: 1638
Descent: 410
sfntRevision: 0x00010000
LayerCount: 2
Layer: 0 0 "Back"  1
Layer: 1 0 "Fore"  0
XUID: [1021 823 301787212 7475719]
FSType: 0
OS2Version: 2
OS2_WeightWidthSlopeOnly: 0
OS2_UseTypoMetrics: 1
CreationTime: 1390146436
ModificationTime: 1394984221
PfmFamily: 81
TTFWeight: 400
TTFWidth: 5
LineGap: 0
VLineGap: 0
Panose: 0 0 0 0 0 0 0 0 0 0
OS2TypoAscent: 2368
OS2TypoAOffset: 0
OS2TypoDescent: -544
OS2TypoDOffset: 0
OS2TypoLinegap: 0
OS2WinAscent: 2368
OS2WinAOffset: 0
OS2WinDescent: 544
OS2WinDOffset: 0
HheadAscent: 2368
HheadAOffset: 0
HheadDescent: -544
HheadDOffset: 0
OS2SubXSize: 1434
OS2SubYSize: 1331
OS2SubXOff: 0
OS2SubYOff: 287
OS2SupXSize: 1434
OS2SupYSize: 1331
OS2SupXOff: 0
OS2SupYOff: 977
OS2StrikeYSize: 102
OS2StrikeYPos: 512
OS2Vendor: 'newt'
OS2CodePages: 20000111.40000000
OS2UnicodeRanges: 800000af.7800204b.14000000.00000000
Lookup: 258 0 0 "'kern' Horizontal Kerning in Latin lookup 0"  {"'kern' Horizontal Kerning in Latin lookup 0 per glyph data 0"  "'kern' Horizontal Kerning in Latin lookup 0 per glyph data 1"  "'kern' Horizontal Kerning in Latin lookup 0 kerning class 2"  } ['kern' ('latn' <'dflt' > ) ]
MarkAttachClasses: 1
DEI: 91125
KernClass2: 8+ 3 "'kern' Horizontal Kerning in Latin lookup 0 kerning class 2" 
 1 T
 1 Y
 3 m n
 1 K
 1 L
 1 P
 1 V
 7 b e o p
 13 a c d e g o q
 5 v w y
 0 {} -512 {} 0 {} 0 {} -512 {} 0 {} 0 {} 0 {} -64 {} 0 {} -128 {} 0 {} 0 {} -128 {} 0 {} 0 {} -64 {} 0 {} 0 {} -256 {} 0 {} 0 {} 0 {} -64 {}
LangName: 1033 "vernon adams" "" "Regular" "1.000;pyrs;Michroma" "" "Version 1.000" "" "" "" "" "" "" "" "" "" "" "" "" "Michroma" 
GaspTable: 1 65535 3 0
Encoding: GWF-FULL-LATIN_3
Compacted: 1
UnicodeInterp: none
NameList: AGL For New Fonts
DisplaySize: -48
AntiAlias: 1
FitToEm: 1
WinInfo: 0 33 12
BeginPrivate: 9

StartChar: exclam
Encoding: 2 33 2
Width: 448
GlyphClass: 2
Flags: HMW
LayerCount: 2
Fore
SplineSet
128 1536 m 1
 320 1536 l 1
 272 448 l 1
 176 448 l 1
 128 1536 l 1
320 0 m 1
 128 0 l 1
 128 192 l 1
 320 192 l 1
 320 0 l 1
EndSplineSet
EndChar

StartChar: quotedbl
Encoding: 3 34 3
Width: 768
GlyphClass: 2
Flags: HMW
LayerCount: 2
Fore
SplineSet
128 1536 m 1
 320 1536 l 1
 288 1152 l 1
 160 1152 l 1
 128 1536 l 1
448 1536 m 1
 640 1536 l 1
 608 1152 l 1
 480 1152 l 1
 448 1536 l 1
EndSplineSet
EndChar

StartChar: numbersign
Encoding: 4 35 4
Width: 1536
GlyphClass: 2
Flags: HMW
LayerCount: 2
Fore
SplineSet
835 320 m 1
 526 320 l 1
 415 -128 l 1
 255 -80 l 1
 354 320 l 1
 128 320 l 1
 128 480 l 1
 393 480 l 1
 489 864 l 1
 192 864 l 1
 192 1024 l 1
 528 1024 l 1
 640 1472 l 1
 800 1424 l 1
 700 1024 l 1
 1009 1024 l 1
 1121 1472 l 1
 1281 1424 l 1
 1181 1024 l 1
 1408 1024 l 1
 1408 864 l 1
 1142 864 l 1
 1046 480 l 1
 1344 480 l 1
 1344 320 l 1
 1007 320 l 1
 896 -128 l 1
 736 -80 l 1
 835 320 l 1
565 480 m 1
 874 480 l 1
 970 864 l 1
 661 864 l 1
 565 480 l 1
EndSplineSet
EndChar

StartChar: dollar
Encoding: 5 36 5
Width: 2018
GlyphClass: 2
Flags: HMW
LayerCount: 2
Fore
SplineSet
913 -36 m 1
 832 -36 l 2
 554 -36 365 -2 265 66 c 0
 166 133 129 228 129 384 c 1
 321 384 l 1
 321 266 351 201 433 166 c 128
 473 149 525 138 590 134 c 128
 655 130 736 128 832 128 c 2
 913 128 l 1
 913 704 l 1
 896 704 l 2
 568 704 352 742 248 816 c 0
 152 884 128 978 128 1130 c 128
 128 1291 170 1382 280 1453 c 0
 392 1525 603 1564 913 1568 c 1
 913 1664 l 1
 1105 1664 l 1
 1105 1568 l 1
 1152 1568 l 2
 1428 1568 1618 1534 1720 1468 c 0
 1819 1403 1856 1307 1856 1152 c 1
 1664 1152 l 1
 1664 1270 1634 1335 1552 1370 c 128
 1512 1387 1459 1398 1394 1402 c 128
 1329 1406 1248 1408 1152 1408 c 2
 1105 1408 l 1
 1105 864 l 1
 1160 864 l 2
 1457 864 1652 826 1745 749 c 0
 1834 675 1856 577 1856 424 c 256
 1856 322 1837 241 1799 180 c 0
 1731 72 1587 5 1367 -21 c 0
 1292 -30 1204 -35 1105 -36 c 1
 1105 -128 l 1
 913 -128 l 1
 913 -36 l 1
913 864 m 1
 913 1408 l 1
 685 1405 530 1386 448 1349 c 0
 363 1311 320 1243 320 1144 c 0
 320 1061 329 1006 348 980 c 128
 395 916 441 903 546 882 c 128
 607 870 723 864 896 864 c 2
 913 864 l 1
1105 704 m 1
 1105 128 l 1
 1316 129 1462 152 1544 195 c 0
 1626 238 1664 306 1664 424 c 256
 1664 535 1644 603 1572 645 c 0
 1505 684 1368 704 1160 704 c 2
 1105 704 l 1
EndSplineSet
EndChar

StartChar: ampersand
Encoding: 7 38 7
Width: 2432
GlyphClass: 2
Flags: HMW
LayerCount: 2
Fore
SplineSet
854 1569 m 0
 916 1569 980 1568 1066 1568 c 128
 1097 1568 1128 1568 1160 1568 c 0
 1397 1568 1646 1560 1735 1421 c 0
 1773 1362 1792 1261 1792 1120 c 1
 1600 1120 l 1
 1600 1326 1563 1377 1401 1397 c 0
 1342 1404 1240 1408 1096 1408 c 128
 952 1408 847 1407 782 1405 c 128
 637 1401 512 1378 512 1239 c 128
 512 1175 519 1152 546 1117 c 0
 571 1084 614 1053 672 1024 c 2
 2304 192 l 1
 2240 32 l 1
 640 833 l 1
 433 833 320 726 320 515 c 128
 320 360 350 271 464 232 c 128
 501 219 547 210 604 204 c 0
 680 196 801 192 967 192 c 128
 1133 192 1250 193 1316 194 c 128
 1476 196 1624 203 1699 286 c 0
 1740 331 1760 406 1760 512 c 2
 1760 768 l 1
 1952 768 l 1
 1952 704 l 2
 1952 486 1934 334 1899 248 c 0
 1858 148 1776 81 1653 46 c 0
 1544 15 1356 0 1088 0 c 0
 810 0 630 5 546 16 c 128
 395 36 293 65 220 152 c 0
 159 225 128 345 128 512 c 0
 128 720 214 862 360 929 c 0
 405 950 445 960 480 960 c 1
 382 1025 320 1085 320 1219 c 128
 320 1511 564 1569 854 1569 c 0
EndSplineSet
EndChar

StartChar: quotesingle
Encoding: 8 39 8
AltUni2: 0002bc.ffffffff.0
Width: 448
GlyphClass: 2
Flags: HMW
LayerCount: 2
Fore
SplineSet
128 1536 m 1
 320 1536 l 1
 288 1152 l 1
 160 1152 l 1
 128 1536 l 1
EndSplineSet
EndChar

StartChar: parenleft
Encoding: 9 40 9
Width: 768
GlyphClass: 2
Flags: HMW
LayerCount: 2
Fore
SplineSet
640 -64 m 1
 411 -64 261 27 192 208 c 0
 155 306 134 427 130 573 c 0
 128 639 128 704 128 768 c 256
 128 942 133 1065 144 1138 c 128
 166 1280 202 1387 280 1470 c 0
 362 1557 482 1600 640 1600 c 1
 640 1440 l 1
 536 1440 461 1416 414 1366 c 0
 356 1305 325 1174 322 974 c 0
 321 912 320 843 320 768 c 256
 320 586 323 466 330 408 c 128
 353 207 416 96 640 96 c 1
 640 -64 l 1
EndSplineSet
EndChar

StartChar: parenright
Encoding: 10 41 10
Width: 768
GlyphClass: 2
Flags: HMW
LayerCount: 2
Fore
SplineSet
128 96 m 1
 232 96 307 120 354 170 c 0
 412 231 443 362 446 562 c 0
 447 624 448 693 448 768 c 256
 448 950 445 1070 438 1128 c 128
 415 1329 352 1440 128 1440 c 1
 128 1600 l 1
 357 1600 507 1509 576 1328 c 0
 613 1230 634 1109 638 963 c 0
 640 897 640 832 640 768 c 256
 640 594 635 471 624 398 c 128
 602 256 566 149 488 66 c 0
 406 -21 286 -64 128 -64 c 1
 128 96 l 1
EndSplineSet
EndChar

StartChar: asterisk
Encoding: 11 42 11
Width: 1415
GlyphClass: 2
Flags: HMW
LayerCount: 2
Fore
SplineSet
420 384 m 1
 264 495 l 1
 628 896 l 1
 128 1072 l 1
 228 1250 l 1
 660 992 l 1
 612 1536 l 1
 804 1536 l 1
 756 992 l 1
 1187 1250 l 1
 1287 1072 l 1
 788 896 l 1
 1152 495 l 1
 996 384 l 1
 708 834 l 1
 420 384 l 1
EndSplineSet
EndChar

StartChar: plus
Encoding: 12 43 12
Width: 1344
GlyphClass: 2
Flags: HMW
LayerCount: 2
Fore
SplineSet
128 960 m 1
 576 960 l 1
 576 1408 l 1
 768 1408 l 1
 768 960 l 1
 1216 960 l 1
 1216 800 l 1
 768 800 l 1
 768 320 l 1
 576 320 l 1
 576 800 l 1
 128 800 l 1
 128 960 l 1
EndSplineSet
EndChar

StartChar: comma
Encoding: 13 44 13
Width: 448
GlyphClass: 2
Flags: HMW
LayerCount: 2
Fore
SplineSet
128 128 m 1
 320 128 l 1
 192 -256 l 1
 64 -256 l 1
 128 128 l 1
EndSplineSet
EndChar

StartChar: hyphen
Encoding: 14 45 14
AltUni2: 002015.ffffffff.0
Width: 1024
GlyphClass: 2
Flags: HMW
LayerCount: 2
Fore
SplineSet
128 672 m 1
 896 672 l 1
 896 512 l 1
 128 512 l 1
 128 672 l 1
EndSplineSet
EndChar

StartChar: period
Encoding: 15 46 15
Width: 448
GlyphClass: 2
Flags: HMW
LayerCount: 2
Fore
SplineSet
320 0 m 1
 128 0 l 1
 128 192 l 1
 320 192 l 1
 320 0 l 1
EndSplineSet
EndChar

StartChar: slash
Encoding: 16 47 16
AltUni2: 002215.ffffffff.0
Width: 1023
GlyphClass: 2
Flags: HMW
LayerCount: 2
Fore
SplineSet
768 1536 m 1
 960 1536 l 1
 256 0 l 1
 64 0 l 1
 768 1536 l 1
EndSplineSet
EndChar

StartChar: zero
Encoding: 17 48 17
Width: 2048
GlyphClass: 2
Flags: HMW
LayerCount: 2
Fore
SplineSet
1217 1568 m 2
 1444 1568 1609 1540 1712 1482 c 0
 1857 1401 1909 1239 1916 1016 c 128
 1918 941 1920 859 1920 768 c 256
 1920 749 1920 731 1920 712 c 0
 1920 495 1917 297 1832 164 c 128
 1804 120 1764 83 1712 54 c 0
 1609 -4 1444 -32 1217 -32 c 2
 832 -32 l 2
 605 -32 440 -4 337 54 c 0
 192 135 138 296 132 520 c 128
 130 595 129 677 129 768 c 256
 129 793 129 818 129 843 c 0
 129 1053 133 1243 216 1372 c 128
 244 1416 285 1453 337 1482 c 0
 440 1540 605 1568 832 1568 c 2
 1217 1568 l 2
1217 128 m 2
 1394 128 1513 141 1576 166 c 0
 1654 198 1691 253 1709 346 c 0
 1722 410 1728 551 1728 768 c 256
 1728 985 1723 1121 1712 1177 c 128
 1692 1280 1659 1336 1576 1370 c 0
 1514 1395 1394 1408 1217 1408 c 2
 832 1408 l 2
 655 1408 535 1395 472 1370 c 0
 394 1338 357 1283 339 1190 c 0
 327 1129 321 988 321 768 c 256
 321 551 327 415 338 359 c 128
 358 255 388 200 472 166 c 0
 535 141 655 128 832 128 c 2
 1217 128 l 2
EndSplineSet
EndChar

StartChar: one
Encoding: 18 49 18
Width: 992
GlyphClass: 2
Flags: HMW
LayerCount: 2
Fore
SplineSet
608 1536 m 1
 864 1536 l 1
 864 0 l 1
 672 0 l 1
 672 1376 l 1
 224 992 l 1
 128 1120 l 1
 608 1536 l 1
EndSplineSet
EndChar

StartChar: two
Encoding: 19 50 19
Width: 1984
GlyphClass: 2
Flags: HMW
LayerCount: 2
Fore
SplineSet
128 192 m 2
 128 501 182 679 448 704 c 2
 1472 800 l 2
 1536 805 1584 814 1616 852 c 0
 1648 890 1663 969 1663 1087 c 0
 1663 1301 1609 1372 1417 1396 c 0
 1354 1404 1243 1408 1085 1408 c 128
 927 1408 808 1406 728 1402 c 128
 554 1393 397 1377 346 1256 c 128
 321 1198 320 1127 320 1044 c 0
 320 1027 320 1010 320 992 c 1
 128 992 l 1
 128 1340 239 1499 536 1547 c 0
 623 1561 785 1568 1024 1568 c 256
 1242 1568 1390 1562 1469 1548 c 128
 1610 1524 1699 1495 1768 1412 c 0
 1826 1342 1856 1234 1856 1088 c 0
 1856 811 1779 663 1536 640 c 2
 512 544 l 2
 424 536 370 518 343 454 c 128
 331 425 324 386 322 339 c 128
 320 292 320 232 320 160 c 1
 1824 160 l 1
 1824 0 l 1
 128 0 l 1
 128 192 l 2
EndSplineSet
EndChar

StartChar: three
Encoding: 20 51 20
Width: 1984
GlyphClass: 2
Flags: HMW
LayerCount: 2
Fore
SplineSet
1696 784 m 1
 1820 731 1856 613 1856 428 c 128
 1856 234 1790 101 1656 40 c 128
 1611 19 1558 4 1496 -7 c 0
 1400 -24 1242 -32 1024 -32 c 256
 784 -32 626 -27 550 -16 c 128
 408 4 306 36 232 118 c 0
 162 195 128 316 128 480 c 1
 320 480 l 1
 320 341 320 241 408 190 c 128
 436 174 476 161 528 152 c 0
 618 136 745 128 908 128 c 128
 1071 128 1184 129 1249 130 c 128
 1401 132 1546 139 1611 223 c 0
 1646 268 1663 343 1663 449 c 0
 1663 554 1648 625 1616 661 c 0
 1591 690 1543 704 1472 704 c 2
 768 704 l 1
 768 864 l 1
 1472 864 l 2
 1628 864 1663 924 1663 1087 c 0
 1663 1301 1609 1372 1417 1396 c 0
 1354 1404 1243 1408 1085 1408 c 128
 927 1408 808 1407 728 1404 c 128
 599 1399 486 1393 408 1352 c 128
 322 1307 320 1219 320 1088 c 1
 128 1088 l 1
 128 1397 254 1517 536 1552 c 0
 624 1563 786 1568 1024 1568 c 256
 1242 1568 1390 1562 1469 1548 c 128
 1610 1524 1699 1495 1768 1412 c 0
 1826 1342 1856 1234 1856 1088 c 0
 1856 906 1808 832 1696 784 c 1
EndSplineSet
EndChar

StartChar: four
Encoding: 21 52 21
Width: 2048
GlyphClass: 2
Flags: HMW
LayerCount: 2
Fore
SplineSet
1664 320 m 1
 1664 0 l 1
 1472 0 l 1
 1472 320 l 1
 128 320 l 1
 128 512 l 1
 1408 1536 l 1
 1664 1536 l 1
 1664 480 l 1
 1920 480 l 1
 1920 320 l 1
 1664 320 l 1
1472 480 m 1
 1472 1408 l 1
 320 480 l 1
 1472 480 l 1
EndSplineSet
EndChar

StartChar: five
Encoding: 22 53 22
Width: 1984
GlyphClass: 2
Flags: HMW
LayerCount: 2
Fore
SplineSet
1280 1056 m 2
 1524 1056 1684 1013 1760 928 c 0
 1843 834 1856 686 1856 498 c 128
 1856 281 1797 126 1656 52 c 128
 1611 28 1558 10 1496 -2 c 0
 1398 -22 1240 -32 1024 -32 c 256
 784 -32 626 -27 550 -16 c 128
 408 4 306 36 232 118 c 0
 162 195 128 316 128 480 c 1
 320 480 l 1
 320 341 320 241 408 190 c 128
 436 174 476 161 528 152 c 0
 618 136 745 128 908 128 c 128
 1071 128 1184 129 1249 130 c 128
 1411 133 1548 148 1612 244 c 0
 1647 297 1664 376 1664 482 c 128
 1664 711 1658 855 1475 884 c 128
 1425 892 1360 896 1280 896 c 2
 768 896 l 2
 539 896 401 865 354 802 c 0
 339 782 328 760 320 736 c 1
 128 736 l 1
 128 1536 l 1
 1792 1536 l 1
 1792 1376 l 1
 320 1376 l 1
 320 896 l 1
 357 970 451 1019 604 1044 c 0
 650 1052 705 1056 768 1056 c 2
 1280 1056 l 2
EndSplineSet
EndChar

StartChar: six
Encoding: 23 54 23
Width: 1984
GlyphClass: 2
Flags: HMW
LayerCount: 2
Fore
SplineSet
320 832 m 1
 426 896 597 928 832 928 c 2
 1153 928 l 2
 1428 928 1617 888 1720 808 c 0
 1819 731 1856 618 1856 448 c 256
 1856 278 1819 165 1720 88 c 0
 1617 8 1428 -32 1153 -32 c 2
 832 -32 l 2
 606 -32 440 -4 336 54 c 0
 191 134 139 297 132 520 c 128
 130 595 128 679 128 772 c 128
 128 790 128 807 128 824 c 0
 128 1052 132 1255 232 1384 c 128
 265 1427 312 1461 374 1488 c 0
 495 1541 691 1568 960 1568 c 0
 1293 1568 1520 1529 1640 1452 c 0
 1749 1382 1791 1284 1791 1120 c 1
 1632 1120 l 1
 1632 1238 1604 1283 1536 1324 c 128
 1507 1341 1468 1356 1418 1369 c 0
 1316 1395 1189 1408 1035 1408 c 128
 881 1408 770 1406 698 1403 c 128
 515 1394 391 1365 348 1223 c 0
 329 1161 320 1030 320 832 c 1
832 768 m 2
 678 768 576 764 528 756 c 128
 447 743 396 729 360 682 c 0
 334 647 320 597 320 531 c 128
 320 320 350 202 512 156 c 0
 578 137 685 128 832 128 c 2
 1153 128 l 2
 1304 128 1406 135 1460 148 c 128
 1620 188 1664 244 1664 448 c 256
 1664 538 1656 600 1638 632 c 128
 1603 696 1562 723 1484 742 c 0
 1413 759 1303 768 1153 768 c 2
 832 768 l 2
EndSplineSet
EndChar

StartChar: seven
Encoding: 24 55 24
Width: 1984
GlyphClass: 2
Flags: HMW
LayerCount: 2
Fore
SplineSet
704 0 m 1
 448 0 l 1
 1632 1376 l 1
 128 1376 l 1
 128 1536 l 1
 1856 1536 l 1
 1856 1344 l 1
 704 0 l 1
EndSplineSet
EndChar

StartChar: eight
Encoding: 25 56 25
Width: 1984
GlyphClass: 2
Flags: HMW
LayerCount: 2
Fore
SplineSet
1600 816 m 1
 1779 750 1856 639 1856 427 c 128
 1856 198 1765 81 1591 22 c 0
 1486 -14 1340 -32 1152 -32 c 2
 831 -32 l 2
 558 -32 369 8 264 88 c 0
 175 156 128 265 128 408 c 128
 128 522 138 591 179 661 c 0
 219 729 288 781 384 816 c 1
 263 861 191 937 170 1044 c 0
 163 1078 160 1121 160 1174 c 128
 160 1305 209 1403 296 1462 c 0
 401 1533 589 1568 863 1568 c 2
 1121 1568 l 2
 1395 1568 1583 1533 1688 1462 c 0
 1775 1403 1824 1305 1824 1174 c 128
 1824 967 1756 874 1600 816 c 1
1152 128 m 2
 1302 128 1403 135 1458 149 c 128
 1547 172 1595 190 1630 250 c 0
 1652 289 1664 338 1664 398 c 128
 1664 539 1657 613 1576 668 c 128
 1552 684 1522 697 1484 707 c 0
 1411 726 1300 736 1152 736 c 2
 831 736 l 2
 683 736 581 729 526 714 c 128
 436 690 387 671 352 610 c 0
 330 573 320 524 320 464 c 128
 320 324 327 246 408 193 c 128
 431 178 462 166 500 156 c 0
 572 138 682 128 831 128 c 2
 1152 128 l 2
1152 896 m 2
 1356 896 1488 913 1548 948 c 0
 1611 984 1632 1046 1632 1139 c 128
 1632 1253 1617 1316 1544 1355 c 128
 1520 1368 1490 1378 1452 1386 c 0
 1382 1401 1272 1408 1120 1408 c 2
 863 1408 l 2
 711 1408 608 1402 555 1391 c 128
 424 1363 352 1328 352 1180 c 128
 352 1053 361 989 440 946 c 128
 463 933 494 923 532 916 c 0
 601 903 711 896 863 896 c 2
 1152 896 l 2
EndSplineSet
EndChar

StartChar: nine
Encoding: 26 57 26
Width: 1984
GlyphClass: 2
Flags: HMW
LayerCount: 2
Fore
SplineSet
1664 704 m 1
 1558 640 1387 608 1152 608 c 2
 831 608 l 2
 556 608 367 648 264 728 c 0
 165 805 128 918 128 1088 c 256
 128 1258 165 1371 264 1448 c 0
 367 1528 556 1568 831 1568 c 2
 1152 1568 l 2
 1378 1568 1544 1540 1648 1482 c 0
 1793 1402 1845 1239 1852 1016 c 128
 1854 941 1856 857 1856 764 c 128
 1856 746 1856 729 1856 712 c 0
 1856 484 1852 281 1752 152 c 128
 1719 109 1672 75 1610 48 c 0
 1489 -5 1293 -32 1024 -32 c 0
 691 -32 464 7 344 84 c 0
 235 154 193 252 193 416 c 1
 352 416 l 1
 352 298 380 253 448 212 c 128
 477 195 516 180 566 167 c 0
 668 141 795 128 949 128 c 128
 1103 128 1214 130 1286 133 c 128
 1469 142 1593 171 1636 313 c 0
 1655 375 1664 506 1664 704 c 1
1152 768 m 2
 1257 768 1342 770 1409 775 c 128
 1523 783 1610 806 1643 885 c 128
 1657 919 1664 971 1664 1040 c 128
 1664 1176 1643 1279 1566 1336 c 128
 1474 1404 1328 1408 1152 1408 c 2
 831 1408 l 2
 680 1408 578 1401 524 1388 c 128
 364 1348 320 1292 320 1088 c 256
 320 998 328 936 346 904 c 128
 381 840 422 813 500 794 c 0
 571 777 681 768 831 768 c 2
 1152 768 l 2
EndSplineSet
EndChar

StartChar: colon
Encoding: 27 58 27
Width: 448
GlyphClass: 2
Flags: HMW
LayerCount: 2
Fore
SplineSet
320 768 m 1
 128 768 l 1
 128 960 l 1
 320 960 l 1
 320 768 l 1
320 192 m 1
 128 192 l 1
 128 384 l 1
 320 384 l 1
 320 192 l 1
EndSplineSet
EndChar

StartChar: semicolon
Encoding: 28 59 28
Width: 448
GlyphClass: 2
Flags: HMW
LayerCount: 2
Fore
SplineSet
128 512 m 1
 320 512 l 1
 192 128 l 1
 64 128 l 1
 128 512 l 1
320 768 m 1
 128 768 l 1
 128 960 l 1
 320 960 l 1
 320 768 l 1
EndSplineSet
EndChar

StartChar: less
Encoding: 29 60 29
Width: 1152
GlyphClass: 2
Flags: HMW
LayerCount: 2
Fore
SplineSet
1024 1472 m 1
 1024 1216 l 1
 272 832 l 1
 1024 448 l 1
 1024 192 l 1
 128 736 l 1
 128 928 l 1
 1024 1472 l 1
EndSplineSet
EndChar

StartChar: equal
Encoding: 30 61 30
Width: 1472
GlyphClass: 2
Flags: HMW
LayerCount: 2
Fore
SplineSet
128 1024 m 1
 1344 1024 l 1
 1344 864 l 1
 128 864 l 1
 128 1024 l 1
128 480 m 1
 1344 480 l 1
 1344 320 l 1
 128 320 l 1
 128 480 l 1
EndSplineSet
EndChar

StartChar: greater
Encoding: 31 62 31
Width: 1152
GlyphClass: 2
Flags: HMW
LayerCount: 2
Fore
SplineSet
1024 928 m 1
 1024 736 l 1
 128 192 l 1
 128 448 l 1
 880 832 l 1
 128 1216 l 1
 128 1472 l 1
 1024 928 l 1
EndSplineSet
EndChar

StartChar: question
Encoding: 32 63 32
Width: 1856
GlyphClass: 2
Flags: HMW
LayerCount: 2
Fore
SplineSet
1728 1153 m 0
 1728 890 1572 736 1292 736 c 128
 1093 736 946 728 910 571 c 0
 900 529 896 445 896 321 c 1
 704 321 l 1
 704 387 l 2
 704 496 709 572 720 616 c 128
 772 826 940 896 1216 896 c 0
 1438 896 1535 943 1535 1152 c 0
 1535 1273 1507 1340 1424 1374 c 128
 1384 1390 1331 1401 1266 1404 c 128
 1201 1407 1115 1408 1008 1408 c 128
 831 1408 667 1408 528 1388 c 128
 411 1371 333 1343 324 1228 c 128
 322 1198 320 1163 320 1122 c 1
 128 1122 l 1
 128 1264 162 1369 232 1436 c 0
 318 1519 494 1562 758 1566 c 0
 840 1567 923 1568 1008 1568 c 128
 1017 1568 1025 1568 1034 1568 c 0
 1288 1568 1526 1566 1645 1432 c 0
 1700 1370 1728 1277 1728 1153 c 0
896 0 m 1
 704 0 l 1
 704 192 l 1
 896 192 l 1
 896 0 l 1
EndSplineSet
EndChar

StartChar: at
Encoding: 33 64 33
Width: 2240
GlyphClass: 2
Flags: HMW
LayerCount: 2
Fore
SplineSet
840 306 m 128
 911 290 989 288 1082 288 c 0
 1095 288 1109 288 1123 288 c 128
 1242 288 1349 289 1418 332 c 0
 1476 368 1504 448 1504 573 c 0
 1504 762 1451 840 1298 856 c 128
 1249 861 1190 864 1123 864 c 128
 1108 864 1094 864 1080 864 c 0
 987 864 911 862 840 846 c 128
 717 818 704 747 704 576 c 256
 704 484 710 424 722 397 c 128
 746 343 777 320 840 306 c 128
1796 288 m 128
 1915 288 1920 338 1920 480 c 2
 1920 768 l 2
 1920 1037 1857 1138 1635 1185 c 0
 1537 1206 1403 1216 1232 1216 c 128
 1061 1216 933 1214 846 1211 c 128
 621 1202 453 1167 380 1012 c 0
 341 929 321 784 321 576 c 0
 321 379 340 238 380 154 c 0
 451 4 623 -43 846 -56 c 128
 933 -61 1248 -64 1791 -64 c 1
 1791 -224 l 1
 1152 -224 l 2
 860 -224 638 -196 488 -138 c 0
 345 -83 247 6 194 127 c 0
 150 227 128 377 128 576 c 0
 128 804 150 968 194 1068 c 0
 245 1184 343 1265 488 1310 c 0
 628 1354 849 1376 1152 1376 c 0
 1530 1376 1786 1331 1920 1240 c 0
 1967 1208 2006 1169 2034 1124 c 128
 2062 1079 2088 865 2112 480 c 1
 2112 346 2092 255 2053 208 c 0
 2009 155 1921 128 1791 128 c 0
 1654 128 1567 186 1567 320 c 1
 1538 257 1484 217 1428 188 c 128
 1349 147 1241 128 1120 128 c 128
 865 128 639 141 556 307 c 0
 527 366 512 455 512 576 c 256
 512 815 559 929 734 984 c 0
 819 1011 947 1024 1117 1024 c 0
 1254 1024 1360 997 1435 944 c 0
 1467 921 1490 894 1504 864 c 1
 1504 992 l 1
 1696 992 l 1
 1696 480 l 2
 1696 397 1700 347 1708 329 c 128
 1725 293 1745 288 1796 288 c 128
EndSplineSet
EndChar

StartChar: A
Encoding: 34 65 34
Width: 2176
GlyphClass: 2
Flags: HMW
LayerCount: 2
Fore
SplineSet
1696 352 m 1
 480 352 l 1
 288 0 l 1
 64 0 l 1
 960 1536 l 1
 1216 1536 l 1
 2112 0 l 1
 1888 0 l 1
 1696 352 l 1
1600 512 m 1
 1088 1408 l 1
 576 512 l 1
 1600 512 l 1
EndSplineSet
EndChar

StartChar: B
Encoding: 35 66 35
Width: 2112
GlyphClass: 2
Flags: HMW
LayerCount: 2
Fore
SplineSet
1473 1536 m 2
 1784 1536 1920 1466 1920 1186 c 128
 1920 983 1837 844 1664 832 c 1
 1767 826 1831 792 1882 746 c 128
 1940 694 1984 595 1984 498 c 128
 1984 321 1970 203 1880 119 c 128
 1851 92 1814 70 1766 52 c 0
 1672 17 1530 0 1343 0 c 2
 192 0 l 1
 192 1536 l 1
 1473 1536 l 2
1279 160 m 2
 1440 160 1545 165 1595 175 c 128
 1680 192 1726 210 1758 268 c 0
 1780 309 1792 379 1792 478 c 0
 1792 651 1746 696 1612 719 c 0
 1547 730 1436 736 1279 736 c 2
 384 736 l 1
 384 160 l 1
 1279 160 l 2
1279 896 m 2
 1415 896 1506 901 1551 911 c 128
 1628 928 1669 944 1698 996 c 0
 1718 1031 1728 1080 1728 1143 c 128
 1728 1250 1723 1305 1664 1340 c 0
 1623 1364 1538 1376 1409 1376 c 2
 384 1376 l 1
 384 896 l 1
 1279 896 l 2
EndSplineSet
EndChar

StartChar: C
Encoding: 36 67 36
Width: 2111
GlyphClass: 2
Flags: HMW
LayerCount: 2
Fore
SplineSet
1791 1056 m 1
 1791 1204 1767 1299 1679 1352 c 128
 1587 1407 1455 1408 1298 1408 c 0
 1292 1408 1286 1408 1280 1408 c 2
 831 1408 l 2
 654 1408 534 1395 471 1370 c 0
 393 1338 356 1283 338 1190 c 0
 326 1129 320 988 320 768 c 256
 320 551 325 415 336 359 c 128
 356 255 387 200 471 166 c 0
 534 141 654 128 831 128 c 2
 1280 128 l 2
 1434 128 1538 135 1590 150 c 128
 1680 175 1726 200 1758 270 c 0
 1780 319 1791 400 1791 512 c 1
 1983 512 l 1
 1983 237 1915 96 1718 24 c 0
 1617 -13 1471 -32 1280 -32 c 2
 831 -32 l 2
 604 -32 439 -4 336 54 c 0
 191 135 137 296 131 520 c 128
 129 595 128 677 128 768 c 256
 128 793 128 818 128 843 c 0
 128 1053 133 1243 216 1372 c 128
 244 1416 284 1453 336 1482 c 0
 439 1540 604 1568 831 1568 c 2
 1280 1568 l 2
 1558 1568 1747 1527 1847 1444 c 0
 1948 1361 1983 1236 1983 1056 c 1
 1791 1056 l 1
EndSplineSet
EndChar

StartChar: D
Encoding: 37 68 37
Width: 2176
GlyphClass: 2
Flags: HMW
LayerCount: 2
Fore
SplineSet
1343 160 m 2
 1520 160 1634 169 1684 188 c 128
 1778 223 1815 266 1836 366 c 0
 1849 427 1856 561 1856 768 c 256
 1856 975 1850 1105 1839 1158 c 128
 1818 1257 1786 1309 1703 1340 c 0
 1640 1364 1520 1376 1343 1376 c 2
 384 1376 l 1
 384 160 l 1
 1343 160 l 2
192 0 m 1
 192 1536 l 1
 1343 1536 l 2
 1570 1536 1735 1508 1838 1453 c 0
 1984 1375 2037 1223 2044 1006 c 128
 2046 934 2048 855 2048 768 c 256
 2048 751 2048 733 2048 716 c 0
 2048 505 2045 314 1960 188 c 128
 1932 146 1890 111 1838 83 c 0
 1735 28 1570 0 1343 0 c 2
 192 0 l 1
EndSplineSet
EndChar

StartChar: E
Encoding: 38 69 38
Width: 1792
GlyphClass: 2
Flags: HMW
LayerCount: 2
Fore
SplineSet
192 0 m 1
 192 1536 l 1
 1728 1536 l 1
 1728 1376 l 1
 384 1376 l 1
 384 864 l 1
 1664 864 l 1
 1664 704 l 1
 384 704 l 1
 384 160 l 1
 1728 160 l 1
 1728 0 l 1
 192 0 l 1
EndSplineSet
EndChar

StartChar: F
Encoding: 39 70 39
Width: 1728
GlyphClass: 2
Flags: HMW
LayerCount: 2
Fore
SplineSet
192 0 m 1
 192 1536 l 1
 1664 1536 l 1
 1664 1376 l 1
 384 1376 l 1
 384 864 l 1
 1600 864 l 1
 1600 704 l 1
 384 704 l 1
 384 0 l 1
 192 0 l 1
EndSplineSet
EndChar

StartChar: G
Encoding: 40 71 40
Width: 2177
GlyphClass: 2
Flags: HMW
LayerCount: 2
Fore
SplineSet
1857 1056 m 1
 1857 1204 1833 1299 1745 1352 c 128
 1653 1407 1519 1408 1362 1408 c 2
 1345 1408 l 1
 831 1408 l 2
 654 1408 534 1395 471 1370 c 0
 393 1338 356 1283 338 1190 c 0
 326 1129 320 988 320 768 c 256
 320 551 325 415 336 359 c 128
 356 255 387 200 471 166 c 0
 534 141 654 128 831 128 c 2
 1346 128 l 2
 1500 128 1604 135 1656 150 c 128
 1746 175 1792 200 1824 270 c 0
 1846 319 1857 400 1857 512 c 2
 1857 608 l 1
 1087 608 l 1
 1087 768 l 1
 2049 768 l 1
 2049 512 l 2
 2049 237 1981 96 1784 24 c 0
 1683 -13 1537 -32 1346 -32 c 2
 831 -32 l 2
 604 -32 439 -4 336 54 c 0
 191 135 137 296 131 520 c 128
 129 595 128 677 128 768 c 256
 128 793 128 818 128 843 c 0
 128 1053 133 1243 216 1372 c 128
 244 1416 284 1453 336 1482 c 0
 439 1540 604 1568 831 1568 c 2
 1345 1568 l 2
 1622 1568 1811 1527 1912 1444 c 0
 2014 1361 2049 1236 2049 1056 c 1
 1857 1056 l 1
EndSplineSet
EndChar

StartChar: H
Encoding: 41 72 41
Width: 2176
GlyphClass: 2
Flags: HMW
LayerCount: 2
Fore
SplineSet
1792 1536 m 1
 1984 1536 l 1
 1984 0 l 1
 1792 0 l 1
 1792 704 l 1
 384 704 l 1
 384 0 l 1
 192 0 l 1
 192 1536 l 1
 384 1536 l 1
 384 864 l 1
 1792 864 l 1
 1792 1536 l 1
EndSplineSet
EndChar

StartChar: J
Encoding: 43 74 43
Width: 1715
GlyphClass: 2
Flags: HMW
LayerCount: 2
Fore
SplineSet
1024 156 m 2
 1255 156 1344 223 1344 448 c 2
 1344 1536 l 1
 1536 1536 l 1
 1536 448 l 2
 1536 286 1499 171 1424 104 c 0
 1347 35 1214 0 1024 0 c 2
 576 0 l 2
 321 0 179 56 144 270 c 128
 133 335 128 416 128 512 c 2
 128 576 l 1
 320 576 l 1
 320 512 l 2
 320 359 339 260 376 214 c 0
 417 163 483 156 576 156 c 2
 1024 156 l 2
EndSplineSet
EndChar

StartChar: K
Encoding: 44 75 44
Width: 2016
GlyphClass: 2
Flags: HMW
LayerCount: 2
Fore
SplineSet
1632 1536 m 1
 1920 1536 l 1
 832 784 l 1
 1952 0 l 1
 1664 0 l 1
 640 704 l 1
 384 704 l 1
 384 0 l 1
 192 0 l 1
 192 1536 l 1
 384 1536 l 1
 384 864 l 1
 640 864 l 1
 1632 1536 l 1
EndSplineSet
EndChar

StartChar: L
Encoding: 45 76 45
Width: 1664
GlyphClass: 2
Flags: HMW
LayerCount: 2
Fore
SplineSet
192 0 m 1
 192 1536 l 1
 384 1536 l 1
 384 160 l 1
 1600 160 l 1
 1600 0 l 1
 192 0 l 1
EndSplineSet
EndChar

StartChar: M
Encoding: 46 77 46
Width: 2800
GlyphClass: 2
Flags: HMW
LayerCount: 2
Fore
SplineSet
384 1408 m 1
 384 0 l 1
 192 0 l 1
 192 1536 l 1
 512 1536 l 1
 1407 192 l 1
 2302 1536 l 1
 2608 1536 l 1
 2608 0 l 1
 2416 0 l 1
 2416 1387 l 1
 1504 0 l 1
 1310 0 l 1
 384 1408 l 1
EndSplineSet
EndChar

StartChar: N
Encoding: 47 78 47
Width: 2321
GlyphClass: 2
Flags: HMW
LayerCount: 2
Fore
SplineSet
384 0 m 1
 192 0 l 1
 192 1536 l 1
 529 1536 l 1
 1937 192 l 1
 1937 1536 l 1
 2129 1536 l 1
 2129 0 l 1
 1873 0 l 1
 384 1376 l 1
 384 0 l 1
EndSplineSet
EndChar

StartChar: O
Encoding: 48 79 48
Width: 2240
GlyphClass: 2
Flags: HMW
LayerCount: 2
Fore
SplineSet
1409 1568 m 2
 1636 1568 1801 1540 1904 1482 c 0
 2049 1401 2101 1239 2108 1016 c 128
 2110 941 2112 859 2112 768 c 256
 2112 749 2112 731 2112 712 c 0
 2112 495 2109 297 2024 164 c 128
 1996 120 1956 83 1904 54 c 0
 1801 -4 1636 -32 1409 -32 c 2
 831 -32 l 2
 604 -32 439 -4 336 54 c 0
 191 135 137 296 131 520 c 128
 129 595 128 677 128 768 c 256
 128 793 128 818 128 843 c 0
 128 1053 133 1243 216 1372 c 128
 244 1416 284 1453 336 1482 c 0
 439 1540 604 1568 831 1568 c 2
 1409 1568 l 2
1409 128 m 2
 1586 128 1705 141 1768 166 c 0
 1846 198 1883 253 1901 346 c 0
 1914 410 1920 551 1920 768 c 256
 1920 985 1915 1121 1904 1177 c 128
 1884 1280 1851 1336 1768 1370 c 0
 1706 1395 1586 1408 1409 1408 c 2
 831 1408 l 2
 654 1408 534 1395 471 1370 c 0
 393 1338 356 1283 338 1190 c 0
 326 1129 320 988 320 768 c 256
 320 551 325 415 336 359 c 128
 356 255 387 200 471 166 c 0
 534 141 654 128 831 128 c 2
 1409 128 l 2
EndSplineSet
EndChar

StartChar: P
Encoding: 49 80 49
Width: 1984
GlyphClass: 2
Flags: HMW
LayerCount: 2
Fore
SplineSet
192 1536 m 1
 1346 1536 l 2
 1611 1536 1778 1499 1848 1424 c 0
 1890 1378 1914 1312 1918 1225 c 0
 1920 1184 1920 1137 1920 1086 c 128
 1920 927 1914 808 1832 730 c 128
 1804 703 1762 681 1710 663 c 0
 1603 626 1439 608 1215 608 c 2
 384 608 l 1
 384 0 l 1
 192 0 l 1
 192 1536 l 1
384 768 m 1
 1215 768 l 2
 1389 768 1502 773 1554 784 c 128
 1640 802 1683 818 1708 881 c 0
 1721 913 1728 966 1728 1041 c 128
 1728 1116 1728 1169 1726 1200 c 128
 1720 1305 1672 1342 1575 1360 c 0
 1515 1371 1395 1376 1215 1376 c 2
 384 1376 l 1
 384 768 l 1
EndSplineSet
EndChar

StartChar: Q
Encoding: 50 81 50
Width: 2352
GlyphClass: 2
Flags: HMW
LayerCount: 2
Fore
SplineSet
832 1568 m 2
 1410 1568 l 2
 1637 1568 1802 1540 1905 1482 c 0
 1957 1453 1997 1416 2025 1372 c 128
 2110 1239 2113 1041 2113 824 c 0
 2113 805 2113 787 2113 768 c 256
 2113 521 2104 369 2085 313 c 1
 2224 224 l 1
 2144 96 l 1
 2028 170 l 1
 2027 168 2026 166 2025 164 c 0
 1997 120 1957 83 1905 54 c 0
 1802 -4 1637 -32 1410 -32 c 2
 832 -32 l 2
 605 -32 440 -4 337 54 c 0
 285 83 244 120 216 164 c 128
 133 293 129 483 129 693 c 0
 129 718 129 743 129 768 c 256
 129 859 130 941 132 1016 c 128
 138 1240 192 1401 337 1482 c 0
 440 1540 605 1568 832 1568 c 2
1877 267 m 1
 1247 671 l 1
 1328 800 l 1
 1913 424 l 1
 1918 483 1921 597 1921 768 c 256
 1921 985 1915 1126 1902 1190 c 0
 1884 1283 1848 1338 1770 1370 c 0
 1708 1395 1587 1408 1410 1408 c 2
 832 1408 l 2
 655 1408 535 1395 472 1370 c 0
 389 1337 357 1282 337 1180 c 128
 326 1126 321 988 321 768 c 256
 321 551 327 410 340 346 c 0
 358 253 394 198 472 166 c 0
 535 141 655 128 832 128 c 2
 1410 128 l 2
 1418 128 1427 128 1435 128 c 0
 1635 128 1816 131 1877 267 c 1
EndSplineSet
EndChar

StartChar: R
Encoding: 51 82 51
Width: 2112
GlyphClass: 2
Flags: HMW
LayerCount: 2
Fore
SplineSet
1707 672 m 1
 1909 642 1952 532 1952 288 c 2
 1952 0 l 1
 1760 0 l 1
 1760 288 l 2
 1760 492 1752 556 1607 587 c 0
 1540 601 1420 608 1247 608 c 2
 384 608 l 1
 384 0 l 1
 192 0 l 1
 192 1536 l 1
 1279 1536 l 2
 1604 1536 1810 1499 1896 1424 c 0
 1980 1350 1984 1238 1984 1078 c 128
 1984 841 1917 704 1707 672 c 1
384 768 m 1
 1279 768 l 2
 1452 768 1566 773 1618 784 c 128
 1704 802 1747 818 1772 881 c 0
 1785 913 1792 966 1792 1041 c 128
 1792 1116 1792 1169 1790 1200 c 128
 1784 1305 1736 1342 1639 1360 c 0
 1579 1371 1459 1376 1279 1376 c 2
 384 1376 l 1
 384 768 l 1
EndSplineSet
EndChar

StartChar: S
Encoding: 52 83 52
Width: 1984
GlyphClass: 2
Flags: HMW
LayerCount: 2
Fore
SplineSet
1160 864 m 2
 1457 864 1652 826 1745 749 c 0
 1834 675 1856 577 1856 424 c 256
 1856 322 1837 241 1799 180 c 0
 1709 36 1472 -36 1088 -36 c 2
 832 -36 l 2
 554 -36 365 -2 265 66 c 0
 166 133 129 228 129 384 c 1
 321 384 l 1
 321 266 351 201 433 166 c 128
 473 149 525 138 590 134 c 128
 655 130 736 128 832 128 c 2
 1088 128 l 2
 1308 128 1460 150 1544 195 c 0
 1626 238 1664 306 1664 424 c 256
 1664 535 1644 603 1572 645 c 0
 1505 684 1368 704 1160 704 c 2
 896 704 l 2
 568 704 352 742 248 816 c 0
 152 884 128 978 128 1130 c 128
 128 1366 242 1464 432 1516 c 0
 557 1550 732 1568 960 1568 c 2
 1152 1568 l 2
 1428 1568 1618 1534 1720 1468 c 0
 1819 1403 1856 1307 1856 1152 c 1
 1664 1152 l 1
 1664 1270 1634 1335 1552 1370 c 128
 1512 1387 1459 1398 1394 1402 c 128
 1329 1406 1248 1408 1152 1408 c 2
 960 1408 l 2
 707 1408 536 1388 448 1349 c 0
 366 1313 320 1250 320 1144 c 128
 320 1024 337 961 416 921 c 128
 442 908 476 897 519 888 c 0
 598 872 723 864 896 864 c 2
 1160 864 l 2
EndSplineSet
EndChar

StartChar: T
Encoding: 53 84 53
Width: 1984
GlyphClass: 2
Flags: HMW
LayerCount: 2
Fore
SplineSet
1856 1536 m 1
 1856 1376 l 1
 1088 1376 l 1
 1088 0 l 1
 896 0 l 1
 896 1376 l 1
 128 1376 l 1
 128 1536 l 1
 1856 1536 l 1
EndSplineSet
EndChar

StartChar: U
Encoding: 54 85 54
Width: 2113
GlyphClass: 2
Flags: HMW
LayerCount: 2
Fore
SplineSet
1985 1536 m 1
 1985 768 l 2
 1985 749 1985 731 1985 712 c 0
 1985 495 1982 297 1897 164 c 128
 1869 120 1829 83 1777 54 c 0
 1674 -4 1509 -32 1282 -32 c 2
 832 -32 l 2
 605 -32 440 -4 337 54 c 0
 192 135 138 296 132 520 c 128
 130 595 129 677 129 768 c 2
 129 1536 l 1
 321 1536 l 1
 321 768 l 2
 321 551 327 415 338 359 c 128
 358 255 388 200 472 166 c 0
 535 141 655 128 832 128 c 2
 1282 128 l 2
 1459 128 1580 141 1642 166 c 0
 1765 216 1788 345 1791 520 c 128
 1792 589 1793 672 1793 768 c 2
 1792 1536 l 1
 1985 1536 l 1
EndSplineSet
EndChar

StartChar: V
Encoding: 55 86 55
Width: 2048
GlyphClass: 2
Flags: HMW
LayerCount: 2
Fore
SplineSet
1760 1536 m 1
 1984 1536 l 1
 1152 0 l 1
 896 0 l 1
 64 1536 l 1
 288 1536 l 1
 1024 128 l 1
 1760 1536 l 1
EndSplineSet
EndChar

StartChar: W
Encoding: 56 87 56
Width: 3328
GlyphClass: 2
Flags: HMW
LayerCount: 2
Fore
SplineSet
1584 1536 m 1
 1808 1536 l 1
 2432 160 l 1
 3040 1536 l 1
 3264 1536 l 1
 2560 0 l 1
 2304 0 l 1
 1696 1344 l 1
 1088 0 l 1
 832 0 l 1
 64 1536 l 1
 288 1536 l 1
 960 160 l 1
 1584 1536 l 1
EndSplineSet
EndChar

StartChar: X
Encoding: 57 88 57
Width: 2176
GlyphClass: 2
Flags: HMW
LayerCount: 2
Fore
SplineSet
1209 810 m 1
 2112 0 l 1
 1840 0 l 1
 1075 686 l 1
 336 0 l 1
 64 0 l 1
 937 810 l 1
 128 1536 l 1
 400 1536 l 1
 1070 934 l 1
 1719 1536 l 1
 1991 1536 l 1
 1209 810 l 1
EndSplineSet
EndChar

StartChar: Y
Encoding: 58 89 58
Width: 2200
GlyphClass: 2
Flags: HMW
LayerCount: 2
Fore
SplineSet
128 1536 m 1
 384 1536 l 1
 1088 784 l 1
 1792 1536 l 1
 2048 1536 l 1
 1184 640 l 1
 1184 0 l 1
 992 0 l 1
 992 640 l 1
 128 1536 l 1
EndSplineSet
EndChar

StartChar: Z
Encoding: 59 90 59
Width: 2046
GlyphClass: 2
Flags: HMW
LayerCount: 2
Fore
SplineSet
128 0 m 1
 128 160 l 1
 1614 1376 l 1
 192 1376 l 1
 192 1536 l 1
 1888 1536 l 1
 1888 1376 l 1
 394 160 l 5
 1920 160 l 1
 1920 0 l 1
 128 0 l 1
EndSplineSet
EndChar

StartChar: bracketleft
Encoding: 60 91 60
Width: 832
GlyphClass: 2
Flags: HMW
LayerCount: 2
Fore
SplineSet
128 1536 m 1
 704 1536 l 1
 704 1376 l 1
 320 1376 l 1
 320 160 l 1
 704 160 l 1
 704 0 l 1
 128 0 l 1
 128 1536 l 1
EndSplineSet
EndChar

StartChar: backslash
Encoding: 61 92 61
Width: 1023
GlyphClass: 2
Flags: HMW
LayerCount: 2
Fore
SplineSet
960 0 m 1
 768 0 l 1
 64 1536 l 1
 256 1536 l 1
 960 0 l 1
EndSplineSet
EndChar

StartChar: bracketright
Encoding: 62 93 62
Width: 832
GlyphClass: 2
Flags: HMW
LayerCount: 2
Fore
SplineSet
704 0 m 1
 128 0 l 1
 128 160 l 1
 512 160 l 1
 512 1376 l 1
 128 1376 l 1
 128 1536 l 1
 704 1536 l 1
 704 0 l 1
EndSplineSet
EndChar

StartChar: asciicircum
Encoding: 63 94 63
Width: 1088
GlyphClass: 2
Flags: HMW
LayerCount: 2
Fore
SplineSet
544 1408 m 1
 192 896 l 1
 64 992 l 1
 448 1536 l 1
 640 1536 l 1
 1024 992 l 1
 896 896 l 1
 544 1408 l 1
EndSplineSet
EndChar

StartChar: underscore
Encoding: 64 95 64
Width: 1088
GlyphClass: 2
Flags: HMW
LayerCount: 2
Fore
SplineSet
0 0 m 1
 1088 0 l 1
 1088 -160 l 1
 0 -160 l 1
 0 0 l 1
EndSplineSet
EndChar

StartChar: grave
Encoding: 65 96 65
Width: 960
GlyphClass: 2
Flags: HMW
LayerCount: 2
Fore
SplineSet
128 1664 m 1
 256 1856 l 1
 832 1376 l 1
 768 1280 l 1
 128 1664 l 1
EndSplineSet
EndChar

StartChar: a
Encoding: 66 97 66
Width: 1595
GlyphClass: 2
Flags: HMW
LayerCount: 2
Fore
SplineSet
764 659 m 0
 1046 659 1216 621 1275 544 c 1
 1275 693 1261 800 1234 867 c 0
 1178 1005 1066 1024 858 1024 c 128
 751 1024 668 1022 610 1018 c 128
 478 1008 379 985 379 852 c 1
 187 852 l 1
 187 974 234 1059 328 1108 c 0
 424 1158 591 1184 829 1184 c 0
 1161 1184 1364 1114 1434 856 c 128
 1456 774 1467 670 1467 544 c 2
 1467 0 l 1
 1275 0 l 1
 1275 158 l 1
 1273 150 1260 132 1236 104 c 128
 1153 7 1032 -24 830 -24 c 128
 687 -24 573 -18 488 -6 c 128
 403 6 333 26 279 52 c 0
 175 101 123 181 123 293 c 0
 123 453 182 558 299 606 c 0
 370 635 449 651 537 654 c 128
 625 657 700 659 764 659 c 0
560 136 m 128
 628 131 710 128 808 128 c 128
 969 128 1082 131 1179 176 c 0
 1243 206 1275 254 1275 320 c 256
 1275 385 1238 430 1164 456 c 0
 1088 483 956 496 765 496 c 256
 569 496 450 488 409 473 c 128
 335 445 315 413 315 320 c 256
 315 232 337 190 404 164 c 128
 440 150 492 141 560 136 c 128
EndSplineSet
EndChar

StartChar: b
Encoding: 67 98 67
Width: 1632
GlyphClass: 2
Flags: HMW
LayerCount: 2
Fore
SplineSet
320 1043 m 1
 378 1137 549 1184 832 1184 c 0
 1068 1184 1253 1158 1376 1056 c 0
 1483 967 1536 806 1536 574 c 0
 1536 228 1426 62 1158 6 c 128
 1069 -13 969 -22 859 -22 c 128
 677 -22 567 -6 453 36 c 132
 414 50 385 73 365 104 c 128
 345 135 330 160 320 177 c 1
 320 0 l 1
 128 0 l 1
 128 1536 l 1
 320 1536 l 1
 320 1043 l 1
1312 292 m 0
 1334 347 1344 441 1344 574 c 256
 1344 708 1335 797 1318 841 c 128
 1285 924 1247 963 1164 990 c 0
 1097 1012 1009 1023 900 1023 c 128
 870 1023 841 1023 813 1023 c 0
 599 1023 439 1015 368 872 c 0
 336 808 320 708 320 571 c 0
 320 333 356 197 529 152 c 0
 590 136 674 128 782 128 c 128
 801 128 819 128 837 128 c 0
 1065 128 1250 134 1312 292 c 0
EndSplineSet
EndChar

StartChar: c
Encoding: 68 99 68
Width: 1569
GlyphClass: 2
Flags: HMW
LayerCount: 2
Fore
SplineSet
96 576 m 0
 96 790 120 961 232 1060 c 128
 266 1090 310 1114 362 1133 c 0
 459 1168 589 1185 751 1185 c 128
 913 1185 1034 1178 1117 1162 c 128
 1328 1122 1441 1031 1441 789 c 1
 1249 789 l 1
 1249 892 1242 925 1193 962 c 128
 1175 976 1149 988 1116 997 c 0
 1049 1016 958 1025 844 1025 c 128
 730 1025 644 1022 586 1016 c 128
 441 1001 342 967 308 847 c 0
 295 802 289 731 289 634 c 128
 289 596 289 559 289 525 c 0
 289 343 300 219 441 167 c 0
 512 141 632 128 801 128 c 0
 942 128 1038 136 1089 151 c 128
 1218 190 1249 218 1249 384 c 1
 1441 384 l 1
 1441 235 1404 139 1313 76 c 0
 1218 11 1048 -22 801 -22 c 0
 607 -22 460 -4 362 30 c 0
 261 65 190 126 150 213 c 0
 114 292 96 413 96 576 c 0
EndSplineSet
EndChar

StartChar: d
Encoding: 69 100 69
Width: 1632
GlyphClass: 2
Flags: HMW
LayerCount: 2
Fore
SplineSet
800 1184 m 0
 1079 1184 1250 1137 1312 1044 c 1
 1312 1536 l 1
 1504 1536 l 1
 1504 0 l 1
 1312 0 l 1
 1312 171 l 1
 1264 114 l 1
 1166 19 1009 -22 818 -22 c 128
 568 -22 385 -2 256 102 c 0
 149 188 96 346 96 574 c 0
 96 914 196 1098 474 1156 c 128
 563 1175 672 1184 800 1184 c 0
320 292 m 128
 381 137 572 128 792 128 c 128
 1012 128 1190 131 1264 275 c 0
 1296 338 1312 436 1312 571 c 0
 1312 873 1256 1005 971 1020 c 0
 921 1023 861 1024 792 1024 c 128
 572 1024 381 1016 320 860 c 0
 298 804 288 727 288 628 c 128
 288 529 290 456 294 410 c 128
 298 364 307 325 320 292 c 128
EndSplineSet
EndChar

StartChar: e
Encoding: 70 101 70
Width: 1568
GlyphClass: 2
Flags: HMW
LayerCount: 2
Fore
SplineSet
794 -22 m 0
 463 -22 218 29 134 270 c 128
 109 343 96 438 96 556 c 128
 96 896 196 1095 474 1155 c 128
 563 1174 662 1184 772 1184 c 128
 1095 1184 1302 1119 1396 900 c 0
 1426 831 1440 728 1440 592 c 1
 1424 528 l 1
 288 528 l 1
 288 350 325 237 400 188 c 0
 492 128 633 128 794 128 c 128
 886 128 960 131 1018 136 c 128
 1156 148 1248 177 1248 320 c 1
 1440 320 l 1
 1440 194 1393 106 1300 56 c 0
 1204 4 1036 -22 794 -22 c 0
1248 656 m 1
 1248 867 1179 975 1005 1008 c 128
 948 1019 884 1024 812 1024 c 130
 805 1024 l 2
 597 1024 421 1024 336 904 c 0
 304 859 288 776 288 656 c 1
 1248 656 l 1
EndSplineSet
EndChar

StartChar: f
Encoding: 71 102 71
Width: 1056
GlyphClass: 2
Flags: HMW
LayerCount: 2
Fore
SplineSet
512 1006 m 5
 512 0 l 1
 320 0 l 1
 320 1006 l 5
 128 1006 l 5
 128 1152 l 1
 320 1152 l 1
 320 1162 l 2
 320 1317 357 1424 432 1482 c 0
 505 1539 639 1568 833 1568 c 2
 1056 1568 l 1
 1056 1408 l 1
 832 1408 l 2
 812 1408 793 1408 774 1408 c 0
 653 1408 559 1402 528 1304 c 128
 517 1271 512 1223 512 1162 c 2
 512 1152 l 1
 1056 1152 l 1
 1056 1006 l 5
 512 1006 l 5
EndSplineSet
EndChar

StartChar: g
Encoding: 72 103 72
Width: 1632
GlyphClass: 2
Flags: HMW
LayerCount: 2
Fore
SplineSet
320 860 m 0
 298 804 288 727 288 628 c 128
 288 379 289 217 468 160 c 0
 536 139 624 128 733 128 c 128
 764 128 794 128 824 128 c 0
 1034 128 1193 136 1264 276 c 0
 1296 339 1312 440 1312 577 c 256
 1312 818 1278 955 1103 1001 c 0
 1045 1016 961 1024 852 1024 c 128
 832 1024 812 1024 792 1024 c 0
 565 1024 382 1018 320 860 c 0
800 1184 m 0
 1076 1184 1247 1138 1312 1045 c 1
 1312 1152 l 1
 1504 1152 l 1
 1504 160 l 2
 1504 -165 1396 -340 1126 -394 c 128
 1037 -412 930 -421 806 -421 c 128
 598 -421 429 -413 300 -354 c 0
 207 -311 160 -238 160 -133 c 1
 352 -133 l 1
 352 -196 388 -220 444 -236 c 0
 505 -253 604 -261 740 -261 c 128
 876 -261 977 -257 1042 -250 c 128
 1171 -236 1251 -190 1286 -83 c 128
 1303 -30 1312 40 1312 128 c 1
 1250 21 1079 -32 800 -32 c 0
 565 -32 379 -7 256 94 c 0
 149 182 96 342 96 574 c 0
 96 914 196 1098 474 1156 c 128
 563 1175 672 1184 800 1184 c 0
EndSplineSet
EndChar

StartChar: h
Encoding: 73 104 73
Width: 1601
GlyphClass: 2
Flags: HMW
LayerCount: 2
Fore
SplineSet
320 970 m 1
 381 1113 573 1184 896 1184 c 0
 1138 1184 1298 1138 1377 1047 c 0
 1454 958 1473 820 1473 650 c 2
 1472 0 l 1
 1280 0 l 1
 1280 650 l 2
 1280 782 1267 879 1200 941 c 0
 1140 996 1017 1024 832 1024 c 0
 551 1024 388 963 342 841 c 0
 328 803 320 761 320 714 c 2
 320 0 l 1
 128 0 l 1
 128 1536 l 1
 320 1536 l 1
 320 970 l 1
EndSplineSet
EndChar

StartChar: i
Encoding: 74 105 74
Width: 576
GlyphClass: 2
Flags: HMW
LayerCount: 2
Fore
SplineSet
192 1152 m 1
 384 1152 l 1
 384 0 l 1
 192 0 l 1
 192 1152 l 1
384 1344 m 1
 192 1344 l 1
 192 1536 l 1
 384 1536 l 1
 384 1344 l 1
EndSplineSet
EndChar

StartChar: j
Encoding: 75 106 75
Width: 672
GlyphClass: 2
Flags: HMW
LayerCount: 2
Fore
SplineSet
128 -224 m 1
 257 -224 288 -193 288 -64 c 2
 288 1152 l 1
 480 1152 l 1
 480 -64 l 2
 480 -165 471 -243 424 -298 c 0
 374 -356 275 -384 128 -384 c 1
 128 -224 l 1
480 1344 m 1
 288 1344 l 1
 288 1536 l 1
 480 1536 l 1
 480 1344 l 1
EndSplineSet
EndChar

StartChar: k
Encoding: 76 107 76
Width: 1408
GlyphClass: 2
Flags: HMW
LayerCount: 2
Fore
SplineSet
128 1536 m 1
 320 1536 l 1
 320 696 l 1
 384 696 l 1
 1088 1152 l 1
 1376 1152 l 1
 560 616 l 1
 1408 0 l 1
 1120 0 l 1
 384 552 l 1
 320 552 l 1
 320 0 l 1
 128 0 l 1
 128 1536 l 1
EndSplineSet
EndChar

StartChar: l
Encoding: 77 108 77
Width: 576
GlyphClass: 2
Flags: HMW
LayerCount: 2
Fore
SplineSet
192 1536 m 1
 384 1536 l 1
 384 0 l 1
 192 0 l 1
 192 1536 l 1
EndSplineSet
EndChar

StartChar: m
Encoding: 78 109 78
Width: 2496
GlyphClass: 2
Flags: HMW
LayerCount: 2
Fore
SplineSet
1304 974 m 1
 1387 1106 1597 1184 1844 1184 c 128
 2105 1184 2278 1136 2338 942 c 0
 2358 877 2368 780 2368 650 c 2
 2368 0 l 1
 2176 0 l 1
 2176 650 l 2
 2176 778 2168 878 2108 941 c 0
 2056 996 1950 1024 1792 1024 c 0
 1548 1024 1406 963 1364 841 c 0
 1351 803 1344 761 1344 714 c 2
 1344 0 l 1
 1152 0 l 1
 1152 650 l 2
 1152 778 1144 878 1084 941 c 0
 1032 996 926 1024 768 1024 c 0
 524 1024 382 963 340 841 c 0
 327 803 320 761 320 714 c 2
 320 0 l 1
 128 0 l 1
 128 1152 l 1
 320 1152 l 1
 320 970 l 1
 332 1006 364 1043 414 1081 c 0
 504 1150 643 1184 832 1184 c 0
 1095 1184 1240 1130 1304 974 c 1
EndSplineSet
EndChar

StartChar: n
Encoding: 79 110 79
Width: 1601
GlyphClass: 2
Flags: HMW
LayerCount: 2
Fore
SplineSet
1280 0 m 1
 1280 640 l 2
 1280 775 1268 875 1200 939 c 0
 1140 996 1017 1024 832 1024 c 0
 551 1024 388 961 342 835 c 0
 328 796 320 752 320 704 c 2
 320 0 l 1
 128 0 l 1
 128 1152 l 1
 320 1152 l 1
 320 960 l 1
 384 1109 576 1184 896 1184 c 0
 1138 1184 1298 1137 1377 1044 c 0
 1454 953 1473 813 1473 640 c 2
 1472 0 l 1
 1280 0 l 1
EndSplineSet
EndChar

StartChar: o
Encoding: 80 111 80
Width: 1600
GlyphClass: 2
Flags: HMW
LayerCount: 2
Fore
SplineSet
96 584 m 256
 96 920 198 1099 474 1156 c 128
 563 1174 672 1184 800 1184 c 256
 1142 1184 1383 1130 1466 877 c 128
 1491 800 1504 702 1504 584 c 256
 1504 234 1396 63 1126 6 c 128
 1037 -13 928 -22 800 -22 c 256
 565 -22 379 3 256 104 c 0
 149 192 96 352 96 584 c 256
800 1024 m 256
 483 1024 339 1007 300 760 c 128
 292 712 288 654 288 588 c 128
 288 426 294 287 376 212 c 128
 451 143 575 128 732 128 c 128
 764 128 796 128 826 128 c 0
 1036 128 1196 137 1264 279 c 0
 1296 345 1312 447 1312 584 c 0
 1312 822 1279 957 1104 1002 c 0
 1046 1017 944 1024 800 1024 c 256
EndSplineSet
EndChar

StartChar: p
Encoding: 81 112 81
Width: 1632
GlyphClass: 2
Flags: HMW
LayerCount: 2
Fore
SplineSet
320 1045 m 1
 380 1138 551 1184 832 1184 c 0
 1068 1184 1253 1158 1376 1056 c 0
 1483 967 1536 806 1536 574 c 0
 1536 228 1426 62 1158 6 c 128
 1069 -13 970 -22 860 -22 c 128
 679 -22 565 -13 452 30 c 0
 386 55 342 88 320 128 c 1
 320 -384 l 1
 128 -384 l 1
 128 1152 l 1
 320 1152 l 1
 320 1045 l 1
1256 940 m 128
 1169 1018 1010 1024 840 1024 c 128
 620 1024 441 1018 368 874 c 0
 336 811 320 712 320 577 c 0
 320 336 355 199 529 152 c 0
 589 136 674 128 782 128 c 128
 801 128 820 128 838 128 c 0
 1065 128 1250 134 1312 292 c 0
 1334 347 1344 441 1344 574 c 256
 1344 708 1335 797 1318 841 c 128
 1301 885 1280 919 1256 940 c 128
EndSplineSet
EndChar

StartChar: q
Encoding: 82 113 82
Width: 1632
GlyphClass: 2
Flags: HMW
LayerCount: 2
Fore
SplineSet
1312 128 m 1
 1251 28 1080 -22 800 -22 c 0
 565 -22 379 3 256 104 c 0
 149 192 96 352 96 584 c 256
 96 920 198 1099 474 1156 c 128
 563 1174 672 1184 800 1184 c 0
 1078 1184 1249 1134 1312 1035 c 1
 1312 1152 l 1
 1504 1152 l 1
 1504 -384 l 1
 1312 -384 l 1
 1312 128 l 1
606 1018 m 128
 464 1008 362 976 320 869 c 0
 298 815 288 720 288 584 c 256
 288 448 297 357 314 312 c 128
 347 227 384 189 468 161 c 0
 534 139 645 128 800 128 c 0
 943 128 1038 134 1087 148 c 128
 1178 174 1227 205 1264 280 c 0
 1296 345 1312 448 1312 587 c 0
 1312 825 1279 962 1103 1004 c 0
 1045 1018 961 1024 852 1024 c 128
 743 1024 660 1022 606 1018 c 128
EndSplineSet
EndChar

StartChar: r
Encoding: 83 114 83
Width: 1280
GlyphClass: 2
Flags: HMW
LayerCount: 2
Fore
SplineSet
1120 777 m 1
 1120 871 1114 933 1060 972 c 0
 1013 1006 905 1024 736 1024 c 0
 505 1024 372 963 336 840 c 0
 325 802 320 760 320 713 c 2
 320 0 l 1
 128 0 l 1
 128 1152 l 1
 320 1152 l 1
 320 969 l 1
 350 1061 437 1126 582 1162 c 0
 640 1177 716 1184 810 1184 c 128
 1044 1184 1218 1133 1262 952 c 128
 1274 901 1280 843 1280 777 c 1
 1120 777 l 1
EndSplineSet
EndChar

StartChar: t
Encoding: 85 116 85
Width: 1376
GlyphClass: 2
Flags: HMW
LayerCount: 2
Fore
SplineSet
1248 512 m 1
 1248 316 1214 182 1144 109 c 128
 1074 36 949 0 768 0 c 0
 593 0 471 29 404 88 c 0
 335 148 301 257 301 416 c 2
 301 994 l 1
 64 994 l 1
 64 1152 l 1
 301 1152 l 1
 301 1467 l 5
 493 1467 l 5
 493 1152 l 1
 1216 1152 l 1
 1216 994 l 1
 493 994 l 1
 493 416 l 2
 493 297 513 222 554 192 c 0
 594 162 658 160 730 160 c 0
 740 160 749 160 759 160 c 130
 764 160 l 2
 910 160 1016 161 1058 267 c 0
 1078 316 1088 398 1088 512 c 1
 1248 512 l 1
EndSplineSet
EndChar

StartChar: u
Encoding: 86 117 86
Width: 1601
GlyphClass: 2
Flags: HMW
LayerCount: 2
Fore
SplineSet
321 1152 m 1
 321 512 l 2
 321 377 333 277 401 213 c 0
 461 156 584 128 769 128 c 0
 1050 128 1214 191 1260 317 c 0
 1274 356 1281 400 1281 448 c 2
 1281 1152 l 1
 1473 1152 l 1
 1473 0 l 1
 1281 0 l 1
 1281 192 l 1
 1239 100 1133 36 964 0 c 0
 894 -15 813 -22 718 -22 c 128
 438 -22 234 19 163 220 c 0
 140 286 128 383 128 512 c 2
 129 1152 l 1
 321 1152 l 1
EndSplineSet
EndChar

StartChar: v
Encoding: 87 118 87
Width: 1600
GlyphClass: 2
Flags: HMW
LayerCount: 2
Fore
SplineSet
672 0 m 1
 64 1152 l 1
 288 1152 l 1
 800 128 l 1
 1312 1152 l 1
 1536 1152 l 1
 928 0 l 1
 672 0 l 1
EndSplineSet
EndChar

StartChar: w
Encoding: 88 119 88
Width: 2240
GlyphClass: 2
Flags: HMW
LayerCount: 2
Fore
SplineSet
2176 1152 m 1
 1728 0 l 1
 1472 0 l 1
 1120 944 l 1
 768 0 l 1
 512 0 l 1
 64 1152 l 1
 288 1152 l 1
 640 144 l 1
 1024 1152 l 1
 1216 1152 l 1
 1596 144 l 1
 1952 1152 l 1
 2176 1152 l 1
EndSplineSet
EndChar

StartChar: x
Encoding: 89 120 89
Width: 1628
GlyphClass: 2
Flags: HMW
LayerCount: 2
Fore
SplineSet
1276 0 m 1
 814 482 l 1
 352 0 l 1
 96 0 l 1
 686 586 l 5
 124 1152 l 1
 380 1152 l 1
 819 707 l 1
 1248 1152 l 1
 1504 1152 l 1
 942 587 l 1
 1532 0 l 1
 1276 0 l 1
EndSplineSet
EndChar

StartChar: y
Encoding: 90 121 90
Width: 1568
GlyphClass: 2
Flags: HMW
LayerCount: 2
Fore
SplineSet
672 0 m 1
 64 1152 l 1
 288 1152 l 1
 800 128 l 1
 1280 1152 l 1
 1504 1152 l 1
 896 -64 l 2
 880 -96 864 -126 848 -154 c 0
 815 -214 774 -262 724 -296 c 0
 638 -355 493 -384 288 -384 c 1
 288 -224 l 1
 409 -224 500 -214 560 -194 c 0
 590 -184 614 -173 632 -160 c 128
 686 -120 705 -63 736 0 c 1
 672 0 l 1
EndSplineSet
EndChar

StartChar: z
Encoding: 91 122 91
Width: 1472
GlyphClass: 2
Flags: HMW
LayerCount: 2
Fore
SplineSet
192 1152 m 5
 1344 1152 l 5
 1344 992 l 5
 382 143 l 5
 1344 143 l 5
 1344 0 l 5
 128 0 l 5
 128 160 l 5
 1104 1011 l 5
 192 1011 l 5
 192 1152 l 5
EndSplineSet
EndChar

StartChar: braceleft
Encoding: 92 123 92
Width: 960
GlyphClass: 2
Flags: HMW
LayerCount: 2
Fore
SplineSet
128 688 m 1
 128 848 l 1
 268 848 320 866 320 983 c 0
 320 993 320 1003 320 1014 c 128
 320 1048 320 1088 322 1135 c 0
 333 1453 486 1600 832 1600 c 1
 832 1440 l 1
 730 1440 655 1423 606 1388 c 0
 516 1323 512 1176 512 1020 c 128
 512 987 511 961 510 940 c 0
 505 865 463 808 384 768 c 1
 475 722 512 665 512 542 c 0
 512 534 512 525 512 516 c 128
 512 483 512 436 514 374 c 128
 519 178 607 96 832 96 c 1
 832 -64 l 1
 611 -64 457 -1 384 138 c 128
 332 237 320 374 320 522 c 128
 320 534 320 545 320 556 c 0
 320 672 267 688 128 688 c 1
EndSplineSet
EndChar

StartChar: bar
Encoding: 93 124 93
Width: 448
GlyphClass: 2
Flags: HMW
LayerCount: 2
Fore
SplineSet
128 -128 m 1
 128 1600 l 1
 320 1600 l 1
 320 -128 l 1
 128 -128 l 1
EndSplineSet
EndChar

StartChar: braceright
Encoding: 94 125 94
Width: 960
GlyphClass: 2
Flags: HMW
LayerCount: 2
Fore
SplineSet
448 994 m 0
 448 1002 448 1011 448 1020 c 128
 448 1053 448 1100 446 1162 c 128
 441 1358 353 1440 128 1440 c 1
 128 1600 l 1
 410 1600 574 1499 621 1272 c 128
 636 1198 640 1097 640 1014 c 128
 640 980 641 955 643 936 c 128
 651 861 720 848 832 848 c 1
 832 688 l 1
 692 688 640 672 640 556 c 0
 640 546 640 534 640 522 c 128
 640 488 640 448 638 401 c 0
 627 83 474 -64 128 -64 c 1
 128 96 l 1
 230 96 305 113 354 148 c 0
 444 213 448 360 448 516 c 128
 448 549 449 575 450 596 c 0
 455 671 497 728 576 768 c 1
 485 814 448 871 448 994 c 0
EndSplineSet
EndChar

StartChar: asciitilde
Encoding: 95 126 95
Width: 1152
GlyphClass: 2
Flags: HMW
LayerCount: 2
Fore
SplineSet
320 832 m 1
 128 832 l 1
 128 997 237 1088 384 1088 c 0
 454 1088 527 1072 603 1040 c 0
 647 1021 701 992 754 992 c 128
 818 992 832 1009 832 1088 c 1
 1024 1088 l 1
 1024 1000 993 932 932 886 c 0
 884 850 829 832 768 832 c 0
 698 832 625 848 549 880 c 0
 505 899 451 928 398 928 c 128
 330 928 320 910 320 832 c 1
EndSplineSet
EndChar

StartChar: exclamdown
Encoding: 98 161 97
Width: 448
GlyphClass: 2
Flags: HMW
LayerCount: 2
Fore
SplineSet
128 -0 m 1
 176 1088 l 1
 272 1088 l 1
 320 -0 l 1
 128 -0 l 1
320 1536 m 1
 320 1344 l 1
 128 1344 l 1
 128 1536 l 1
 320 1536 l 1
EndSplineSet
EndChar

StartChar: cent
Encoding: 99 162 98
Width: 1601
GlyphClass: 2
Flags: HMW
LayerCount: 2
Fore
SplineSet
128 544 m 256
 128 700 146 816 182 892 c 0
 222 977 293 1036 394 1070 c 0
 492 1103 638 1120 833 1120 c 0
 1080 1120 1251 1087 1345 1020 c 0
 1437 955 1473 856 1473 704 c 1
 1281 704 l 1
 1281 870 1250 898 1121 937 c 128
 1070 952 974 960 833 960 c 0
 664 960 544 948 473 924 c 0
 399 899 361 861 338 786 c 128
 327 750 321 669 321 544 c 256
 321 419 327 336 340 294 c 0
 374 181 477 150 618 136 c 128
 676 130 762 128 875 128 c 128
 988 128 1079 138 1148 159 c 0
 1181 169 1207 181 1225 196 c 128
 1275 237 1281 274 1281 384 c 1
 1473 384 l 1
 1473 312 1464 250 1445 198 c 128
 1402 79 1295 21 1149 -8 c 128
 1066 -24 944 -32 783 -32 c 128
 491 -32 271 10 182 196 c 0
 146 272 128 388 128 544 c 256
EndSplineSet
EndChar

StartChar: sterling
Encoding: 100 163 99
Width: 1663
GlyphClass: 2
Flags: HMW
LayerCount: 2
Fore
SplineSet
64 800 m 1
 256 800 l 1
 256 958 l 2
 256 1272 304 1439 522 1517 c 0
 619 1552 765 1569 960 1569 c 0
 1181 1569 1334 1538 1419 1474 c 0
 1497 1416 1536 1315 1536 1173 c 1
 1344 1173 l 1
 1344 1274 1338 1307 1294 1346 c 128
 1278 1360 1256 1372 1228 1381 c 0
 1171 1400 1091 1409 987 1409 c 128
 883 1409 802 1406 744 1400 c 128
 599 1385 501 1351 467 1231 c 0
 454 1186 448 1095 448 958 c 2
 448 800 l 1
 1280 800 l 1
 1280 640 l 1
 448 640 l 1
 448 160 l 1
 1472 160 l 1
 1472 0 l 1
 256 0 l 1
 256 640 l 1
 64 640 l 1
 64 800 l 1
EndSplineSet
EndChar

StartChar: currency
Encoding: 101 164 100
Width: 1280
GlyphClass: 2
Flags: HMW
LayerCount: 2
Fore
SplineSet
934 848 m 1
 1084 977 l 1
 1168 880 l 1
 1023 756 l 1
 1066 691 1088 611 1088 514 c 128
 1088 417 1066 335 1023 268 c 1
 1168 144 l 1
 1084 47 l 1
 933 175 l 1
 858 122 761 96 639 96 c 128
 517 96 420 123 346 176 c 1
 196 47 l 1
 112 144 l 1
 256 268 l 1
 213 334 192 415 192 512 c 128
 192 609 213 690 256 756 c 1
 112 880 l 1
 196 977 l 1
 346 848 l 1
 423 901 521 928 640 928 c 128
 759 928 857 901 934 848 c 1
896 512 m 256
 896 682 805 768 640 768 c 256
 470 768 384 684 384 512 c 256
 384 341 469 256 640 256 c 256
 810 256 896 341 896 512 c 256
EndSplineSet
EndChar

StartChar: yen
Encoding: 102 165 101
Width: 2048
GlyphClass: 2
Flags: HMW
LayerCount: 2
Fore
SplineSet
416 416 m 1
 928 416 l 1
 928 640 l 1
 416 640 l 1
 416 800 l 1
 773 800 l 1
 64 1536 l 1
 320 1536 l 1
 1024 768 l 1
 1728 1536 l 1
 1984 1536 l 1
 1274 800 l 1
 1632 800 l 1
 1632 640 l 1
 1120 640 l 1
 1120 416 l 1
 1632 416 l 1
 1632 256 l 1
 1120 256 l 1
 1120 0 l 1
 928 0 l 1
 928 256 l 1
 416 256 l 1
 416 416 l 1
EndSplineSet
EndChar

StartChar: brokenbar
Encoding: 103 166 102
Width: 448
GlyphClass: 2
Flags: HMW
LayerCount: 2
Fore
SplineSet
128 896 m 1
 128 1600 l 1
 320 1600 l 1
 320 896 l 1
 128 896 l 1
128 -128 m 1
 128 576 l 1
 320 576 l 1
 320 -128 l 1
 128 -128 l 1
EndSplineSet
EndChar

StartChar: section
Encoding: 104 167 103
Width: 1504
GlyphClass: 2
Flags: HMW
LayerCount: 2
Fore
SplineSet
129 1116 m 0
 129 1345 236 1402 432 1446 c 128
 509 1463 643 1472 833 1472 c 0
 1034 1472 1175 1445 1255 1392 c 0
 1334 1340 1373 1249 1373 1120 c 1
 1181 1120 l 1
 1181 1251 1119 1291 1002 1304 c 128
 957 1309 879 1312 767 1312 c 128
 655 1312 561 1306 487 1292 c 0
 381 1273 321 1240 321 1120 c 128
 321 1049 334 1017 392 994 c 0
 450 971 586 960 800 960 c 0
 1183 960 1374 892 1374 757 c 0
 1374 702 1345 633 1286 551 c 1
 1352 504 1376 435 1376 324 c 0
 1376 95 1269 38 1073 -6 c 128
 996 -23 862 -32 672 -32 c 0
 471 -32 330 -5 250 48 c 0
 171 100 132 191 132 320 c 1
 324 320 l 1
 324 189 386 149 503 136 c 128
 548 131 626 128 738 128 c 128
 850 128 944 134 1018 148 c 0
 1056 155 1086 164 1108 175 c 128
 1171 206 1184 243 1184 337 c 128
 1184 434 1117 453 1028 466 c 128
 936 479 872 480 775 480 c 0
 736 480 693 480 639 480 c 128
 521 480 418 489 329 507 c 0
 286 516 252 527 226 540 c 128
 167 569 128 604 128 699 c 0
 128 750 159 813 220 887 c 1
 154 935 129 1004 129 1116 c 0
1153 607 m 1
 1175 651 1186 686 1186 712 c 0
 1186 728 1179 742 1166 754 c 128
 1153 766 1125 777 1082 786 c 128
 1039 795 945 800 801 800 c 0
 595 800 445 811 352 832 c 1
 339 798 321 768 321 728 c 128
 321 678 354 667 409 654 c 128
 448 645 546 640 704 640 c 0
 909 640 1059 629 1153 607 c 1
EndSplineSet
EndChar

StartChar: dieresis
Encoding: 105 168 104
Width: 1088
GlyphClass: 2
Flags: HMW
LayerCount: 2
Fore
SplineSet
256 1536 m 1
 256 1344 l 1
 64 1344 l 1
 64 1536 l 1
 256 1536 l 1
1024 1536 m 1
 1024 1344 l 1
 832 1344 l 1
 832 1536 l 1
 1024 1536 l 1
EndSplineSet
EndChar

StartChar: copyright
Encoding: 106 169 105
Width: 1920
GlyphClass: 2
Flags: HMW
LayerCount: 2
Fore
SplineSet
960 1664 m 256
 1190 1664 1365 1636 1488 1578 c 0
 1605 1523 1687 1435 1733 1313 c 0
 1772 1210 1792 1060 1792 864 c 256
 1792 773 1788 691 1780 616 c 0
 1763 464 1716 345 1640 260 c 0
 1523 129 1297 64 960 64 c 256
 730 64 555 92 432 150 c 0
 315 205 233 293 187 415 c 0
 148 518 128 668 128 864 c 256
 128 955 132 1037 140 1112 c 0
 157 1264 204 1383 280 1468 c 0
 397 1599 623 1664 960 1664 c 256
960 224 m 256
 1144 224 1275 237 1354 262 c 0
 1447 292 1512 352 1548 442 c 0
 1583 529 1600 670 1600 864 c 256
 1600 1058 1583 1199 1548 1286 c 0
 1506 1391 1448 1436 1330 1474 c 128
 1267 1494 1144 1504 960 1504 c 256
 776 1504 645 1491 566 1466 c 0
 473 1436 408 1376 372 1286 c 0
 337 1199 320 1058 320 864 c 256
 320 670 337 529 372 442 c 0
 414 337 472 292 590 254 c 128
 653 234 776 224 960 224 c 256
448 893 m 256
 448 987 455 1064 469 1126 c 128
 517 1337 693 1375 959 1375 c 0
 1155 1375 1291 1348 1368 1292 c 0
 1438 1241 1472 1153 1472 1027 c 1
 1312 1027 l 1
 1312 1146 1290 1189 1204 1216 c 128
 1128 1240 1068 1241 959 1241 c 0
 945 1241 931 1241 916 1241 c 128
 830 1241 762 1230 714 1210 c 0
 661 1188 637 1156 622 1097 c 128
 614 1067 610 999 610 893 c 256
 610 659 621 573 812 551 c 128
 852 546 915 544 999 544 c 128
 1083 544 1151 553 1204 570 c 0
 1290 598 1312 636 1312 759 c 1
 1472 759 l 1
 1472 633 1438 545 1368 494 c 0
 1274 425 1133 410 956 410 c 128
 853 410 768 417 702 432 c 128
 493 479 448 633 448 893 c 256
EndSplineSet
EndChar

StartChar: guillemotleft
Encoding: 108 171 107
Width: 1344
GlyphClass: 2
Flags: HMW
LayerCount: 2
Fore
SplineSet
768 256 m 1
 672 128 l 1
 128 512 l 1
 128 704 l 1
 672 1088 l 1
 768 960 l 1
 256 608 l 1
 768 256 l 1
1216 256 m 1
 1120 128 l 1
 576 512 l 1
 576 704 l 1
 1120 1088 l 1
 1216 960 l 1
 704 608 l 1
 1216 256 l 1
EndSplineSet
EndChar

StartChar: logicalnot
Encoding: 109 172 108
Width: 1216
GlyphClass: 2
Flags: HMW
LayerCount: 2
Fore
SplineSet
1088 640 m 1
 896 640 l 1
 896 928 l 1
 128 928 l 1
 128 1088 l 1
 1088 1088 l 1
 1088 640 l 1
EndSplineSet
EndChar

StartChar: registered
Encoding: 111 174 109
Width: 1920
GlyphClass: 2
Flags: HMW
LayerCount: 2
Fore
SplineSet
1405 536 m 2
 1405 384 l 1
 1244 384 l 1
 1244 536 l 2
 1244 707 1220 756 1087 786 c 128
 1045 796 959 800 828 800 c 2
 733 800 l 1
 733 384 l 1
 573 384 l 1
 573 1376 l 1
 860 1376 l 2
 1072 1376 1218 1351 1299 1302 c 0
 1374 1256 1404 1193 1404 1078 c 0
 1404 935 1303 869 1160 860 c 1
 1351 836 1405 754 1405 536 c 2
733 1248 m 1
 733 928 l 1
 860 928 l 2
 1016 928 1120 939 1172 962 c 0
 1223 984 1244 1019 1244 1087 c 128
 1244 1155 1223 1189 1172 1212 c 0
 1119 1236 1015 1248 860 1248 c 2
 733 1248 l 1
960 1664 m 256
 1190 1664 1365 1636 1488 1578 c 0
 1605 1523 1687 1435 1733 1313 c 0
 1772 1210 1792 1060 1792 864 c 256
 1792 773 1788 691 1780 616 c 0
 1763 464 1716 345 1640 260 c 0
 1523 129 1297 64 960 64 c 256
 730 64 555 92 432 150 c 0
 315 205 233 293 187 415 c 0
 148 518 128 668 128 864 c 256
 128 955 132 1037 140 1112 c 0
 157 1264 204 1383 280 1468 c 0
 397 1599 623 1664 960 1664 c 256
960 224 m 256
 1144 224 1275 237 1354 262 c 0
 1447 292 1512 352 1548 442 c 0
 1583 529 1600 670 1600 864 c 256
 1600 1058 1583 1199 1548 1286 c 0
 1506 1391 1448 1436 1330 1474 c 128
 1267 1494 1144 1504 960 1504 c 256
 776 1504 645 1491 566 1466 c 0
 473 1436 408 1376 372 1286 c 0
 337 1199 320 1058 320 864 c 256
 320 670 337 529 372 442 c 0
 414 337 472 292 590 254 c 128
 653 234 776 224 960 224 c 256
EndSplineSet
EndChar

StartChar: macron
Encoding: 112 175 110
Width: 1024
GlyphClass: 2
Flags: HMW
LayerCount: 2
Fore
SplineSet
128 1344 m 1
 128 1504 l 1
 896 1504 l 1
 896 1344 l 1
 128 1344 l 1
EndSplineSet
EndChar

StartChar: degree
Encoding: 113 176 111
Width: 1280
GlyphClass: 2
Flags: HMW
LayerCount: 2
Fore
SplineSet
1088 512 m 256
 1088 440 1077 378 1054 326 c 0
 988 173 850 96 640 96 c 256
 365 96 192 242 192 512 c 256
 192 584 203 646 226 698 c 0
 292 851 430 928 640 928 c 256
 915 928 1088 782 1088 512 c 256
896 512 m 256
 896 682 805 768 640 768 c 256
 470 768 384 684 384 512 c 256
 384 341 469 256 640 256 c 256
 810 256 896 341 896 512 c 256
EndSplineSet
EndChar

StartChar: plusminus
Encoding: 114 177 112
Width: 1344
GlyphClass: 2
Flags: HMW
LayerCount: 2
Fore
SplineSet
128 960 m 1
 576 960 l 1
 576 1408 l 1
 768 1408 l 1
 768 960 l 1
 1216 960 l 1
 1216 800 l 1
 768 800 l 1
 768 320 l 1
 576 320 l 1
 576 800 l 1
 128 800 l 1
 128 960 l 1
EndSplineSet
EndChar

StartChar: uni00B2
Encoding: 115 178 113
Width: 1344
GlyphClass: 2
Flags: HMW
LayerCount: 2
Fore
SplineSet
128 448 m 1
 128 672 l 2
 128 753 144 812 178 849 c 0
 223 899 313 936 448 962 c 2
 834 1035 l 2
 971 1062 1024 1090 1024 1242 c 256
 1024 1369 964 1398 842 1404 c 128
 797 1406 727 1408 632 1408 c 128
 537 1408 467 1404 420 1396 c 0
 332 1382 320 1361 320 1248 c 1
 128 1248 l 1
 128 1350 149 1425 190 1472 c 0
 267 1560 408 1569 565 1569 c 0
 608 1569 652 1568 697 1568 c 128
 838 1568 989 1566 1082 1522 c 128
 1186 1473 1216 1386 1216 1220 c 128
 1216 1127 1194 1055 1150 1004 c 0
 1102 947 1018 907 898 884 c 2
 640 833 l 2
 520 809 446 792 416 782 c 0
 332 755 320 733 320 608 c 1
 1186 608 l 1
 1186 448 l 1
 128 448 l 1
EndSplineSet
EndChar

StartChar: uni00B3
Encoding: 116 179 114
Width: 1471
GlyphClass: 2
Flags: HMW
LayerCount: 2
Fore
SplineSet
971 1377 m 0
 909 1377 834 1376 705 1376 c 128
 586 1376 503 1374 455 1370 c 0
 422 1367 396 1362 378 1355 c 128
 326 1336 320 1309 320 1218 c 1
 128 1218 l 1
 128 1330 153 1409 202 1456 c 0
 274 1525 403 1537 544 1537 c 0
 628 1537 702 1536 839 1536 c 128
 955 1536 1040 1533 1093 1526 c 0
 1136 1521 1173 1512 1204 1499 c 128
 1312 1455 1343 1362 1343 1204 c 128
 1343 1070 1291 1010 1183 976 c 1
 1314 923 1343 882 1343 706 c 128
 1343 416 1083 416 791 416 c 128
 701 416 631 415 565 415 c 0
 380 415 259 441 202 490 c 0
 153 532 128 603 128 703 c 1
 320 703 l 1
 320 595 358 589 455 582 c 128
 525 577 593 576 671 576 c 0
 702 576 735 576 770 576 c 128
 845 576 908 577 957 578 c 128
 1006 579 1046 584 1074 594 c 128
 1136 615 1150 657 1150 746 c 128
 1150 794 1138 831 1115 857 c 0
 1082 895 1028 896 959 896 c 2
 768 896 l 1
 768 1056 l 1
 959 1056 l 2
 1100 1056 1150 1091 1150 1226 c 128
 1150 1349 1095 1377 971 1377 c 0
EndSplineSet
EndChar

StartChar: acute
Encoding: 117 180 115
Width: 960
GlyphClass: 2
Flags: HMW
LayerCount: 2
Fore
SplineSet
832 1664 m 1
 192 1280 l 1
 128 1376 l 1
 704 1856 l 1
 832 1664 l 1
EndSplineSet
EndChar

StartChar: mu
Encoding: 118 181 116
Width: 1601
GlyphClass: 2
Flags: HMW
LayerCount: 2
Fore
SplineSet
321 33 m 1
 321 -384 l 1
 129 -384 l 1
 129 -104 l 1
 128 294 l 1
 128 580 l 1
 129 886 l 1
 129 1088 l 1
 321 1088 l 1
 321 512 l 2
 321 377 333 277 401 213 c 0
 461 156 584 128 769 128 c 0
 1050 128 1214 191 1260 317 c 0
 1274 356 1281 400 1281 448 c 2
 1281 1088 l 1
 1473 1088 l 1
 1473 0 l 1
 1281 0 l 1
 1281 191 l 1
 1241 111 1171 60 1076 24 c 0
 977 -13 848 -32 690 -32 c 128
 532 -32 409 -10 321 33 c 1
EndSplineSet
EndChar

StartChar: paragraph
Encoding: 119 182 117
Width: 1984
GlyphClass: 2
Flags: HMW
LayerCount: 2
Fore
SplineSet
1088 1376 m 1
 1088 0 l 1
 896 0 l 1
 896 608 l 1
 833 608 l 2
 627 608 471 626 365 663 c 0
 313 681 271 703 240 730 c 128
 151 807 128 922 128 1086 c 128
 128 1245 148 1352 240 1424 c 0
 335 1499 533 1536 833 1536 c 2
 1856 1536 l 1
 1856 1376 l 1
 1664 1376 l 1
 1664 0 l 1
 1472 0 l 1
 1472 1376 l 1
 1088 1376 l 1
EndSplineSet
EndChar

StartChar: periodcentered
Encoding: 120 183 118
AltUni2: 002219.ffffffff.0
Width: 448
GlyphClass: 2
Flags: HMW
LayerCount: 2
Fore
SplineSet
320 896 m 1
 320 704 l 1
 128 704 l 1
 128 896 l 1
 320 896 l 1
EndSplineSet
EndChar

StartChar: cedilla
Encoding: 121 184 119
Width: 640
GlyphClass: 2
Flags: HMW
LayerCount: 2
Fore
SplineSet
256 -128 m 1
 427 -128 512 -181 512 -288 c 0
 512 -493 356 -544 128 -544 c 1
 128 -384 l 1
 203 -384 249 -381 268 -374 c 0
 303 -361 320 -332 320 -288 c 0
 320 -267 313 -253 299 -246 c 0
 270 -232 213 -224 128 -224 c 1
 128 64 l 1
 256 64 l 1
 256 -128 l 1
EndSplineSet
EndChar

StartChar: uni00B9
Encoding: 122 185 120
Width: 896
GlyphClass: 2
Flags: HMW
LayerCount: 2
Fore
SplineSet
64 1120 m 1
 512 1536 l 1
 768 1536 l 1
 768 448 l 1
 576 448 l 1
 576 1376 l 1
 160 992 l 1
 64 1120 l 1
EndSplineSet
EndChar

StartChar: ordmasculine
Encoding: 123 186 121
Width: 1664
GlyphClass: 2
Flags: HMW
LayerCount: 2
Fore
SplineSet
128 961 m 256
 128 1287 236 1456 506 1510 c 128
 595 1528 704 1537 832 1537 c 256
 1170 1537 1414 1486 1498 1240 c 128
 1523 1166 1536 1073 1536 961 c 256
 1536 635 1428 466 1158 412 c 128
 1069 394 960 385 832 385 c 256
 494 385 250 436 166 682 c 128
 141 756 128 849 128 961 c 256
832 1377 m 256
 586 1377 403 1371 346 1188 c 128
 329 1133 320 1066 320 989 c 128
 320 820 320 694 408 621 c 128
 431 602 462 586 500 575 c 0
 567 555 663 545 788 545 c 128
 913 545 1009 549 1074 556 c 128
 1291 580 1344 713 1344 961 c 256
 1344 1210 1292 1342 1074 1366 c 128
 1009 1373 928 1377 832 1377 c 256
EndSplineSet
EndChar

StartChar: guillemotright
Encoding: 124 187 122
Width: 1344
GlyphClass: 2
Flags: HMW
LayerCount: 2
Fore
SplineSet
640 608 m 1
 128 960 l 1
 224 1088 l 1
 768 704 l 1
 768 512 l 1
 224 128 l 1
 128 256 l 1
 640 608 l 1
1088 608 m 1
 576 960 l 1
 672 1088 l 1
 1216 704 l 1
 1216 512 l 1
 672 128 l 1
 576 256 l 1
 1088 608 l 1
EndSplineSet
EndChar

StartChar: AE
Encoding: 135 198 133
Width: 3072
GlyphClass: 2
Flags: HMW
LayerCount: 2
Fore
SplineSet
1472 0 m 1
 1472 352 l 1
 582 352 l 1
 256 0 l 1
 0 0 l 1
 1408 1536 l 1
 2944 1536 l 1
 2944 1376 l 1
 1664 1376 l 1
 1664 864 l 1
 2880 864 l 1
 2880 704 l 1
 1664 704 l 1
 1664 160 l 1
 2944 160 l 1
 2944 0 l 1
 1472 0 l 1
1472 512 m 1
 1472 1376 l 1
 704 512 l 1
 1472 512 l 1
EndSplineSet
EndChar

StartChar: Ccedilla
Encoding: 136 199 134
Width: 2111
GlyphClass: 2
Flags: HMW
LayerCount: 2
Fore
SplineSet
1087 -128 m 1
 1258 -128 1343 -181 1343 -288 c 0
 1343 -493 1187 -544 959 -544 c 1
 959 -384 l 1
 1034 -384 1080 -381 1099 -374 c 0
 1134 -361 1151 -332 1151 -288 c 0
 1151 -267 1144 -253 1130 -246 c 0
 1101 -232 1044 -224 959 -224 c 1
 959 -32 l 1
 831 -32 l 2
 604 -32 439 -4 336 54 c 0
 191 135 137 296 131 520 c 128
 129 595 128 677 128 768 c 256
 128 793 128 818 128 843 c 0
 128 1053 133 1243 216 1372 c 128
 244 1416 284 1453 336 1482 c 0
 439 1540 604 1568 831 1568 c 2
 1280 1568 l 2
 1558 1568 1747 1527 1847 1444 c 0
 1948 1361 1983 1236 1983 1056 c 1
 1791 1056 l 1
 1791 1204 1767 1299 1679 1352 c 128
 1587 1407 1455 1408 1298 1408 c 0
 1292 1408 1286 1408 1280 1408 c 2
 831 1408 l 2
 654 1408 534 1395 471 1370 c 0
 393 1338 356 1283 338 1190 c 0
 326 1129 320 988 320 768 c 256
 320 551 325 415 336 359 c 128
 356 255 387 200 471 166 c 0
 534 141 654 128 831 128 c 2
 1280 128 l 2
 1434 128 1538 135 1590 150 c 128
 1680 175 1726 200 1758 270 c 0
 1780 319 1791 400 1791 512 c 1
 1983 512 l 1
 1983 237 1915 96 1718 24 c 0
 1617 -13 1471 -32 1280 -32 c 2
 1087 -32 l 1
 1087 -128 l 1
EndSplineSet
EndChar

StartChar: Eth
Encoding: 145 208 143
Width: 2112
GlyphClass: 2
Flags: HMW
LayerCount: 2
Fore
SplineSet
0 704 m 1
 0 864 l 1
 128 864 l 1
 128 1536 l 1
 1279 1536 l 2
 1506 1536 1671 1508 1774 1453 c 0
 1826 1425 1868 1390 1896 1348 c 128
 1981 1222 1984 1031 1984 820 c 0
 1984 803 1984 785 1984 768 c 256
 1984 681 1982 602 1980 530 c 128
 1973 313 1920 161 1774 83 c 0
 1671 28 1506 0 1279 0 c 2
 128 0 l 1
 128 704 l 1
 0 704 l 1
320 160 m 1
 1279 160 l 2
 1456 160 1576 172 1639 196 c 0
 1722 227 1754 279 1775 378 c 128
 1786 431 1792 561 1792 768 c 256
 1792 975 1785 1109 1772 1170 c 0
 1751 1270 1714 1313 1620 1348 c 128
 1570 1367 1456 1376 1279 1376 c 2
 320 1376 l 1
 320 864 l 1
 768 864 l 1
 768 704 l 1
 320 704 l 1
 320 160 l 1
EndSplineSet
EndChar

StartChar: multiply
Encoding: 152 215 150
Width: 1344
GlyphClass: 2
Flags: HMW
LayerCount: 2
Fore
SplineSet
1125 1181 m 1
 808 864 l 1
 1125 547 l 1
 989 411 l 1
 672 728 l 1
 355 411 l 1
 219 547 l 1
 536 864 l 1
 219 1181 l 1
 355 1317 l 1
 672 1000 l 1
 989 1317 l 1
 1125 1181 l 1
EndSplineSet
EndChar

StartChar: Oslash
Encoding: 153 216 151
Width: 2241
GlyphClass: 2
Flags: HMW
LayerCount: 2
Fore
SplineSet
832 1568 m 2
 1414 1568 l 1
 1504 1792 l 1
 1664 1728 l 1
 1596 1561 l 1
 1636 1557 1685 1550 1742 1540 c 128
 1858 1520 1971 1457 2025 1372 c 128
 2110 1238 2113 1034 2113 812 c 0
 2113 797 2113 783 2113 768 c 256
 2113 749 2113 731 2113 712 c 0
 2113 495 2110 297 2025 164 c 128
 1997 120 1957 83 1905 54 c 0
 1802 -4 1637 -32 1410 -32 c 2
 954 -32 l 1
 864 -256 l 1
 704 -192 l 1
 769 -31 l 1
 575 -27 431 1 337 54 c 128
 192 135 138 296 132 520 c 128
 130 595 129 677 129 768 c 256
 129 793 129 818 129 843 c 0
 129 1053 133 1243 216 1372 c 128
 244 1416 285 1453 337 1482 c 0
 440 1540 605 1568 832 1568 c 2
832 1408 m 2
 655 1408 535 1395 472 1370 c 0
 394 1338 357 1283 339 1190 c 0
 327 1129 321 988 321 768 c 256
 321 551 327 415 338 359 c 128
 358 255 388 200 472 166 c 0
 535 141 655 128 832 128 c 2
 833 128 l 1
 1349 1408 l 1
 832 1408 l 2
1410 128 m 2
 1587 128 1706 141 1769 166 c 0
 1847 198 1884 253 1902 346 c 0
 1915 410 1921 551 1921 768 c 256
 1921 985 1915 1121 1904 1177 c 128
 1874 1330 1808 1385 1625 1400 c 0
 1598 1403 1567 1405 1534 1406 c 1
 1019 128 l 1
 1410 128 l 2
EndSplineSet
EndChar

StartChar: Thorn
Encoding: 159 222 157
Width: 1920
GlyphClass: 2
Flags: HMW
LayerCount: 2
Fore
SplineSet
128 0 m 1
 128 1536 l 1
 320 1536 l 1
 320 1344 l 1
 1282 1344 l 2
 1466 1344 1601 1327 1686 1294 c 0
 1729 1277 1761 1257 1784 1232 c 128
 1854 1157 1856 1040 1856 894 c 128
 1856 843 1854 796 1852 752 c 0
 1847 659 1820 587 1768 538 c 0
 1682 456 1476 416 1151 416 c 2
 320 416 l 1
 320 0 l 1
 128 0 l 1
320 1184 m 1
 320 576 l 1
 1151 576 l 2
 1325 576 1445 583 1511 597 c 0
 1610 618 1656 664 1662 776 c 128
 1664 810 1664 862 1664 935 c 128
 1664 1106 1636 1144 1495 1170 c 128
 1446 1179 1331 1184 1151 1184 c 2
 320 1184 l 1
EndSplineSet
EndChar

StartChar: germandbls
Encoding: 160 223 158
Width: 2048
GlyphClass: 2
Flags: HMW
LayerCount: 2
Fore
SplineSet
769 1536 m 2
 1280 1536 l 2
 1465 1536 1599 1506 1680 1444 c 0
 1751 1390 1792 1302 1792 1186 c 128
 1792 1135 1790 1094 1784 1061 c 0
 1759 917 1697 841 1600 832 c 1
 1660 829 1713 814 1760 788 c 128
 1863 730 1920 632 1920 471 c 128
 1920 314 1898 195 1816 119 c 0
 1731 40 1552 0 1279 0 c 2
 512 0 l 1
 512 160 l 1
 1215 160 l 2
 1376 160 1487 166 1548 178 c 0
 1586 186 1617 198 1640 212 c 128
 1724 264 1728 358 1728 501 c 128
 1728 565 1716 613 1694 646 c 0
 1660 696 1612 707 1528 722 c 128
 1477 731 1372 736 1215 736 c 2
 512 736 l 1
 512 896 l 1
 1215 896 l 1
 1223 896 l 2
 1354 896 1462 897 1530 946 c 128
 1587 987 1600 1063 1600 1162 c 128
 1600 1273 1568 1311 1487 1347 c 128
 1444 1366 1354 1376 1216 1376 c 2
 833 1376 l 2
 672 1376 561 1370 500 1358 c 0
 420 1342 381 1318 346 1255 c 128
 328 1223 320 1157 320 1058 c 2
 320 -128 l 1
 128 -128 l 1
 128 1058 l 2
 128 1220 148 1339 232 1417 c 0
 317 1496 496 1536 769 1536 c 2
EndSplineSet
EndChar

StartChar: ae
Encoding: 167 230 165
Width: 2752
GlyphClass: 2
Flags: HMW
LayerCount: 2
Fore
SplineSet
1382 896 m 1
 1465 1071 1657 1120 1925 1120 c 128
 2056 1120 2155 1114 2222 1102 c 128
 2500 1051 2624 907 2624 576 c 1
 2608 512 l 1
 1472 512 l 1
 1472 486 l 1
 1474 337 1500 237 1590 184 c 128
 1683 129 1821 128 1980 128 c 128
 2071 128 2144 131 2202 136 c 128
 2340 148 2432 177 2432 320 c 1
 2624 320 l 1
 2624 191 2577 100 2484 48 c 0
 2389 -5 2232 -32 2016 -32 c 0
 1732 -32 1500 -7 1382 145 c 1
 1314 56 1182 -1 984 -26 c 0
 931 -33 856 -36 762 -36 c 128
 459 -36 128 8 128 293 c 0
 128 453 187 558 304 606 c 0
 375 635 454 651 542 654 c 128
 630 657 703 659 763 659 c 128
 958 659 1211 634 1280 544 c 1
 1280 764 1254 893 1100 938 c 0
 1049 953 970 960 863 960 c 128
 756 960 673 957 615 952 c 128
 477 940 384 911 384 768 c 1
 192 768 l 1
 192 897 238 988 332 1040 c 0
 428 1093 596 1120 834 1120 c 0
 987 1120 1093 1109 1153 1088 c 128
 1269 1046 1329 997 1382 896 c 1
564 136 m 128
 632 131 716 128 814 128 c 128
 975 128 1087 131 1184 176 c 0
 1248 206 1280 254 1280 320 c 256
 1280 385 1244 430 1170 456 c 0
 1094 483 961 496 770 496 c 256
 574 496 455 488 414 473 c 128
 340 445 320 413 320 320 c 256
 320 232 342 190 409 164 c 128
 445 150 496 141 564 136 c 128
1972 960 m 0
 1756 960 1559 960 1498 812 c 128
 1481 770 1472 712 1472 640 c 1
 2432 640 l 1
 2432 764 2397 850 2328 896 c 0
 2264 939 2145 960 1972 960 c 0
EndSplineSet
EndChar

StartChar: ccedilla
Encoding: 168 231 166
Width: 1601
GlyphClass: 2
Flags: HMW
LayerCount: 2
Fore
SplineSet
1088 -288 m 0
 1088 -411 1038 -465 951 -508 c 128
 904 -532 821 -544 704 -544 c 1
 704 -384 l 1
 779 -384 827 -380 848 -372 c 0
 876 -361 896 -336 896 -300 c 128
 896 -284 895 -272 893 -264 c 0
 886 -237 823 -224 704 -224 c 1
 704 -29 l 1
 443 -17 264 25 182 196 c 0
 146 272 128 388 128 544 c 128
 128 700 146 816 182 892 c 0
 222 977 293 1036 394 1070 c 0
 492 1103 638 1120 833 1120 c 0
 1080 1120 1251 1087 1345 1020 c 0
 1437 955 1473 856 1473 704 c 1
 1281 704 l 1
 1281 870 1250 898 1121 937 c 128
 1070 952 974 960 833 960 c 0
 664 960 544 948 473 924 c 0
 399 899 361 861 338 786 c 128
 327 750 321 669 321 544 c 256
 321 419 327 336 340 294 c 0
 374 181 477 150 618 136 c 128
 676 130 762 128 875 128 c 128
 988 128 1079 138 1148 159 c 0
 1181 169 1207 181 1225 196 c 128
 1275 237 1281 274 1281 384 c 1
 1473 384 l 1
 1473 232 1437 133 1345 68 c 0
 1251 1 1080 -32 833 -32 c 2
 832 -32 l 1
 832 -128 l 1
 1003 -128 1088 -181 1088 -288 c 0
EndSplineSet
EndChar

StartChar: eth
Encoding: 177 240 175
Width: 1984
GlyphClass: 2
Flags: HMW
LayerCount: 2
Fore
SplineSet
1856 768 m 0
 1856 677 1854 595 1852 520 c 128
 1845 297 1793 134 1648 54 c 0
 1544 -4 1378 -32 1152 -32 c 2
 831 -32 l 2
 556 -32 367 8 264 88 c 0
 165 165 128 278 128 448 c 256
 128 528 138 598 157 658 c 128
 227 876 495 928 794 928 c 128
 913 928 1010 928 1083 926 c 0
 1380 919 1574 888 1664 832 c 1
 1664 957 1653 1059 1631 1136 c 1
 1324 1026 l 1
 1281 1146 l 1
 1579 1253 l 1
 1526 1331 1463 1363 1351 1388 c 128
 1292 1401 1183 1408 1024 1408 c 0
 820 1408 668 1395 566 1369 c 0
 516 1356 477 1341 448 1324 c 128
 380 1283 352 1238 352 1120 c 1
 193 1120 l 1
 193 1224 213 1306 252 1364 c 0
 375 1547 693 1568 1006 1568 c 128
 1112 1568 1203 1563 1278 1553 c 0
 1497 1524 1650 1443 1739 1311 c 1
 2004 1406 l 1
 2047 1286 l 1
 1796 1196 l 1
 1836 1090 1856 947 1856 768 c 0
500 742 m 128
 422 723 381 696 346 632 c 128
 328 600 320 538 320 448 c 256
 320 244 364 188 524 148 c 128
 578 135 680 128 831 128 c 2
 1152 128 l 2
 1328 128 1474 132 1566 200 c 128
 1648 261 1664 364 1664 514 c 128
 1664 595 1647 651 1613 682 c 0
 1561 730 1478 744 1376 754 c 128
 1233 768 1045 768 876 768 c 2
 868 768 l 130
 852 768 836 768 821 768 c 0
 686 768 601 767 500 742 c 128
EndSplineSet
EndChar

StartChar: divide
Encoding: 184 247 182
Width: 1280
GlyphClass: 2
Flags: HMW
LayerCount: 2
Fore
SplineSet
128 512 m 1
 128 672 l 1
 1152 672 l 1
 1152 512 l 1
 128 512 l 1
768 960 m 1
 768 768 l 1
 576 768 l 1
 576 960 l 1
 768 960 l 1
768 384 m 1
 768 192 l 1
 576 192 l 1
 576 384 l 1
 768 384 l 1
EndSplineSet
EndChar

StartChar: oslash
Encoding: 185 248 183
Width: 1664
GlyphClass: 2
Flags: HMW
LayerCount: 2
Fore
SplineSet
506 -5 m 0
 230 51 128 222 128 544 c 256
 128 870 236 1039 506 1093 c 128
 595 1111 685 1120 774 1120 c 128
 863 1120 930 1118 975 1115 c 1
 1056 1312 l 1
 1216 1248 l 1
 1152 1094 l 1
 1154 1093 1156 1093 1158 1093 c 0
 1434 1037 1536 866 1536 544 c 256
 1536 218 1428 49 1158 -5 c 128
 1069 -23 979 -32 890 -32 c 128
 801 -32 734 -30 689 -27 c 1
 608 -224 l 1
 448 -160 l 1
 511 -6 l 1
 510 -5 508 -5 506 -5 c 0
432 896 m 128
 348 837 320 718 320 572 c 128
 320 349 329 209 500 158 c 0
 521 151 545 146 572 141 c 1
 910 959 l 1
 885 960 842 960 780 960 c 128
 653 960 507 949 432 896 c 128
753 128 m 1
 884 128 l 2
 1055 128 1171 149 1232 192 c 0
 1324 256 1344 375 1344 544 c 256
 1344 710 1324 832 1234 894 c 128
 1196 921 1148 938 1091 946 c 1
 753 128 l 1
EndSplineSet
EndChar

StartChar: thorn
Encoding: 191 254 189
Width: 1600
GlyphClass: 2
Flags: HMW
LayerCount: 2
Fore
SplineSet
886 1120 m 128
 978 1120 1069 1111 1158 1093 c 128
 1428 1039 1536 870 1536 544 c 256
 1536 329 1493 180 1376 88 c 128
 1269 4 1074 -32 886 -32 c 128
 794 -32 726 -30 682 -25 c 0
 486 -4 365 47 320 128 c 1
 320 -384 l 1
 128 -384 l 1
 128 1536 l 1
 320 1536 l 1
 320 961 l 1
 395 1093 643 1120 886 1120 c 128
661 956 m 0
 510 948 412 904 368 824 c 0
 336 766 320 673 320 547 c 0
 320 420 336 326 368 266 c 0
 437 137 590 128 786 128 c 0
 822 128 861 128 900 128 c 128
 1009 128 1097 138 1164 158 c 0
 1246 183 1285 216 1318 295 c 128
 1335 336 1344 419 1344 544 c 256
 1344 669 1334 756 1312 808 c 0
 1250 955 1053 960 840 960 c 128
 771 960 711 959 661 956 c 0
EndSplineSet
EndChar

StartChar: dcroat
Encoding: 210 273 202
Width: 1664
GlyphClass: 2
Flags: HMW
LayerCount: 2
Fore
SplineSet
778 1120 m 128
 1021 1120 1270 1093 1344 960 c 1
 1344 1249 l 1
 896 1249 l 1
 896 1409 l 1
 1344 1409 l 1
 1344 1536 l 1
 1536 1536 l 1
 1536 1409 l 1
 1664 1409 l 1
 1664 1249 l 1
 1536 1249 l 1
 1536 0 l 1
 1344 0 l 1
 1344 127 l 1
 1285 21 1114 -32 832 -32 c 0
 494 -32 250 19 166 265 c 128
 141 339 128 432 128 544 c 256
 128 870 236 1039 506 1093 c 128
 595 1111 686 1120 778 1120 c 128
408 204 m 128
 497 132 658 128 824 128 c 130
 826 128 l 2
 1039 128 1221 128 1296 264 c 0
 1328 322 1344 415 1344 541 c 0
 1344 770 1306 895 1135 938 c 0
 1076 953 992 960 883 960 c 128
 774 960 692 958 638 954 c 128
 499 943 395 911 352 808 c 0
 330 756 320 669 320 544 c 256
 320 419 329 336 346 295 c 128
 363 254 384 223 408 204 c 128
EndSplineSet
EndChar

StartChar: dotlessi
Encoding: 242 305 229
Width: 448
GlyphClass: 2
Flags: HMW
LayerCount: 2
Fore
SplineSet
128 0 m 1
 128 1088 l 1
 320 1088 l 1
 320 0 l 1
 128 0 l 1
EndSplineSet
EndChar

StartChar: kgreenlandic
Encoding: 249 312 236
Width: 1408
GlyphClass: 2
Flags: HMW
LayerCount: 2
Fore
SplineSet
128 0 m 1
 128 1536 l 1
 320 1536 l 1
 320 656 l 1
 384 656 l 1
 1088 1088 l 1
 1376 1088 l 1
 560 576 l 1
 1408 0 l 1
 1120 0 l 1
 384 512 l 1
 320 512 l 1
 320 0 l 1
 128 0 l 1
EndSplineSet
EndChar

StartChar: Lslash
Encoding: 258 321 245
Width: 1664
GlyphClass: 2
Flags: HMW
LayerCount: 2
Fore
SplineSet
64 768 m 1
 64 928 l 1
 768 1088 l 1
 768 928 l 1
 64 768 l 1
1600 0 m 1
 192 0 l 1
 192 1536 l 1
 384 1536 l 1
 384 160 l 1
 1600 160 l 1
 1600 0 l 1
EndSplineSet
EndChar

StartChar: lslash
Encoding: 259 322 246
Width: 512
GlyphClass: 2
Flags: HMW
LayerCount: 2
Fore
SplineSet
0 768 m 1
 0 928 l 1
 576 1088 l 1
 576 928 l 1
 0 768 l 1
128 0 m 1
 128 1536 l 1
 320 1536 l 1
 320 0 l 1
 128 0 l 1
EndSplineSet
EndChar

StartChar: OE
Encoding: 275 338 259
Width: 3520
GlyphClass: 2
Flags: HMW
LayerCount: 2
Fore
SplineSet
1409 1564 m 2
 1425 1564 1441 1565 1457 1565 c 0
 1665 1565 1820 1534 1920 1472 c 1
 1920 1536 l 1
 3456 1536 l 1
 3456 1376 l 1
 2112 1376 l 1
 2112 864 l 1
 3392 864 l 1
 3392 704 l 1
 2112 704 l 1
 2112 160 l 1
 3456 160 l 1
 3456 0 l 1
 1920 0 l 1
 1920 64 l 1
 1816 0 1646 -32 1409 -32 c 2
 831 -32 l 2
 604 -32 439 -4 336 54 c 0
 191 135 137 296 131 520 c 128
 129 595 128 677 128 768 c 256
 128 793 128 818 128 843 c 0
 128 1053 133 1243 216 1372 c 128
 244 1416 284 1453 336 1482 c 0
 435 1537 583 1565 780 1565 c 0
 797 1565 814 1564 831 1564 c 2
 1409 1564 l 2
1409 128 m 2
 1586 128 1705 141 1768 166 c 0
 1846 198 1883 253 1901 346 c 0
 1914 410 1920 551 1920 768 c 256
 1920 985 1915 1121 1904 1177 c 128
 1884 1280 1851 1336 1768 1370 c 128
 1691 1401 1596 1404 1484 1404 c 0
 1460 1404 1435 1404 1409 1404 c 2
 831 1404 l 2
 804 1405 778 1405 753 1405 c 0
 505 1405 375 1380 338 1190 c 0
 326 1129 320 988 320 768 c 256
 320 551 325 415 336 359 c 128
 356 255 387 200 471 166 c 0
 534 141 654 128 831 128 c 2
 1409 128 l 2
EndSplineSet
EndChar

StartChar: oe
Encoding: 276 339 260
Width: 2816
GlyphClass: 2
Flags: HMW
LayerCount: 2
Fore
SplineSet
1440 896 m 1
 1456 960 1522 1013 1639 1056 c 128
 1756 1099 1892 1120 2048 1120 c 0
 2221 1120 2358 1096 2458 1049 c 0
 2624 970 2688 826 2688 576 c 1
 2672 512 l 1
 1536 512 l 1
 1536 275 1597 160 1806 138 c 128
 1871 131 1972 128 2110 128 c 128
 2248 128 2346 140 2404 164 c 0
 2468 190 2496 234 2496 320 c 1
 2688 320 l 1
 2688 100 2553 18 2350 -13 c 128
 2269 -26 2177 -33 2083 -33 c 0
 1810 -33 1522 28 1440 192 c 1
 1407 127 1336 73 1228 32 c 0
 1103 -16 980 -32 794 -32 c 128
 691 -32 595 -23 506 -5 c 128
 236 49 128 218 128 544 c 256
 128 656 141 749 166 823 c 128
 253 1076 499 1120 851 1120 c 128
 1063 1120 1400 1048 1440 896 c 1
408 204 m 128
 431 185 462 169 500 158 c 128
 600 128 704 128 848 128 c 128
 933 128 1009 132 1074 139 c 128
 1292 163 1344 295 1344 544 c 256
 1344 640 1335 716 1318 771 c 128
 1260 955 1079 960 832 960 c 258
 825 960 l 2
 661 960 523 960 432 896 c 128
 348 837 320 718 320 572 c 128
 320 403 320 277 408 204 c 128
1562 812 m 128
 1545 770 1536 712 1536 640 c 1
 2496 640 l 1
 2496 764 2461 850 2392 896 c 0
 2307 953 2190 960 2036 960 c 128
 1820 960 1623 960 1562 812 c 128
EndSplineSet
EndChar

StartChar: scedilla
Encoding: 288 351 272
Width: 1600
GlyphClass: 2
Flags: HMW
LayerCount: 2
Fore
SplineSet
832 -203 m 1
 1003 -203 1088 -256 1088 -363 c 0
 1088 -568 932 -619 704 -619 c 1
 704 -459 l 1
 779 -459 825 -455 844 -448 c 0
 879 -435 896 -407 896 -363 c 0
 896 -342 889 -327 875 -320 c 0
 846 -306 789 -299 704 -299 c 1
 704 -11 l 1
 499 -7 354 19 268 64 c 0
 175 113 128 198 128 320 c 1
 320 320 l 1
 320 234 348 190 412 164 c 0
 470 140 589 128 768 128 c 0
 926 128 1033 134 1088 146 c 128
 1204 170 1280 190 1280 315 c 128
 1280 410 1273 448 1208 475 c 128
 1187 484 1160 490 1124 496 c 0
 1059 506 966 512 845 512 c 128
 795 512 750 512 709 512 c 0
 586 512 494 514 384 532 c 128
 200 563 128 637 128 860 c 0
 128 979 181 1063 288 1112 c 0
 393 1160 575 1184 832 1184 c 0
 1077 1184 1247 1156 1342 1102 c 0
 1430 1052 1472 978 1472 848 c 1
 1280 848 l 1
 1280 928 1250 966 1188 990 c 0
 1128 1013 1030 1024 893 1024 c 128
 756 1024 655 1023 590 1020 c 128
 449 1014 320 1003 320 866 c 128
 320 774 326 719 392 695 c 128
 413 688 440 682 476 678 c 0
 518 674 606 672 738 672 c 128
 870 672 970 670 1038 666 c 128
 1200 657 1345 635 1418 544 c 0
 1454 500 1472 434 1472 344 c 256
 1472 253 1454 183 1418 136 c 0
 1346 41 1150 -8 832 -11 c 1
 832 -203 l 1
EndSplineSet
EndChar

StartChar: florin
Encoding: 322 402 304
Width: 1184
GlyphClass: 2
Flags: HMW
LayerCount: 2
Fore
SplineSet
320 960 m 1
 128 960 l 1
 128 1088 l 1
 320 1088 l 1
 320 1152 l 2
 320 1311 357 1420 432 1480 c 0
 505 1539 639 1568 833 1568 c 2
 960 1568 l 1
 960 1408 l 1
 832 1408 l 2
 813 1408 795 1408 777 1408 c 0
 652 1408 559 1402 528 1300 c 128
 517 1265 512 1216 512 1152 c 2
 512 1088 l 1
 960 1088 l 1
 960 960 l 1
 512 960 l 1
 512 128 l 2
 512 -31 475 -140 400 -200 c 0
 327 -259 193 -288 -1 -288 c 1
 0 -128 l 1
 19 -128 37 -128 55 -128 c 0
 180 -128 273 -122 304 -20 c 128
 315 15 320 64 320 128 c 2
 320 960 l 1
EndSplineSet
EndChar

StartChar: uni0202
Encoding: 364 514 346
Width: 2304
GlyphClass: 2
Flags: HMW
LayerCount: 2
Fore
SplineSet
768 1690 m 1
 768 1925 909 2010 1152 2010 c 256
 1395 2010 1536 1926 1536 1690 c 1
 1376 1690 l 1
 1376 1776 1355 1832 1312 1858 c 0
 1285 1874 1232 1882 1152 1882 c 256
 1072 1882 1020 1875 997 1861 c 0
 951 1833 928 1776 928 1690 c 1
 768 1690 l 1
EndSplineSet
Refer: 34 65 N 1 0 0 1 64 0 2
EndChar

StartChar: uni0203
Encoding: 365 515 347
Width: 1600
GlyphClass: 2
Flags: HMW
LayerCount: 2
Fore
SplineSet
450 1242 m 1
 450 1477 591 1562 834 1562 c 256
 1077 1562 1218 1478 1218 1242 c 1
 1058 1242 l 1
 1058 1328 1037 1384 994 1410 c 0
 967 1426 914 1434 834 1434 c 256
 754 1434 702 1427 679 1413 c 0
 633 1385 610 1328 610 1242 c 1
 450 1242 l 1
EndSplineSet
Refer: 66 97 N 1 0 0 1 5 0 2
EndChar

StartChar: uni0206
Encoding: 368 518 350
Width: 1792
GlyphClass: 2
Flags: HMW
LayerCount: 2
Fore
SplineSet
512 1690 m 1
 512 1925 653 2010 896 2010 c 256
 1139 2010 1280 1926 1280 1690 c 1
 1120 1690 l 1
 1120 1776 1099 1832 1056 1858 c 0
 1029 1874 976 1882 896 1882 c 256
 816 1882 764 1875 741 1861 c 0
 695 1833 672 1776 672 1690 c 1
 512 1690 l 1
EndSplineSet
Refer: 38 69 N 1 0 0 1 -63 0 2
EndChar

StartChar: uni0207
Encoding: 369 519 351
Width: 1600
GlyphClass: 2
Flags: HMW
LayerCount: 2
Fore
SplineSet
448 1242 m 1
 448 1477 589 1562 832 1562 c 256
 1075 1562 1216 1478 1216 1242 c 1
 1056 1242 l 1
 1056 1328 1035 1384 992 1410 c 0
 965 1426 912 1434 832 1434 c 256
 752 1434 700 1427 677 1413 c 0
 631 1385 608 1328 608 1242 c 1
 448 1242 l 1
EndSplineSet
Refer: 70 101 N 1 0 0 1 32 0 2
EndChar

StartChar: uni020A
Encoding: 372 522 354
Width: 448
GlyphClass: 2
Flags: HMW
LayerCount: 2
Fore
SplineSet
-159 1690 m 1
 -159 1925 -18 2010 225 2010 c 256
 468 2010 609 1926 609 1690 c 1
 449 1690 l 1
 449 1776 428 1832 385 1858 c 0
 358 1874 305 1882 225 1882 c 256
 145 1882 93 1875 70 1861 c 0
 24 1833 1 1776 1 1690 c 1
 -159 1690 l 1
EndSplineSet
Refer: 77 108 N 1 0 0 1 -63 0 2
EndChar

StartChar: uni020B
Encoding: 373 523 355
Width: 448
GlyphClass: 2
Flags: HMW
LayerCount: 2
Fore
SplineSet
-159 1242 m 1
 -159 1477 -18 1562 225 1562 c 256
 468 1562 609 1478 609 1242 c 1
 449 1242 l 1
 449 1328 428 1384 385 1410 c 0
 358 1426 305 1434 225 1434 c 256
 145 1434 93 1427 70 1413 c 0
 24 1385 1 1328 1 1242 c 1
 -159 1242 l 1
EndSplineSet
Refer: 229 305 N 1 0 0 1 0 0 2
EndChar

StartChar: uni020E
Encoding: 376 526 358
Width: 2241
GlyphClass: 2
Flags: HMW
LayerCount: 2
Fore
SplineSet
737 1690 m 1
 737 1925 878 2010 1121 2010 c 256
 1364 2010 1505 1926 1505 1690 c 1
 1345 1690 l 1
 1345 1776 1324 1832 1281 1858 c 0
 1254 1874 1201 1882 1121 1882 c 256
 1041 1882 989 1875 966 1861 c 0
 920 1833 897 1776 897 1690 c 1
 737 1690 l 1
EndSplineSet
Refer: 48 79 N 1 0 0 1 1 0 2
EndChar

StartChar: uni020F
Encoding: 377 527 359
Width: 1664
GlyphClass: 2
Flags: HMW
LayerCount: 2
Fore
SplineSet
448 1242 m 1
 448 1477 589 1562 832 1562 c 256
 1075 1562 1216 1478 1216 1242 c 1
 1056 1242 l 1
 1056 1328 1035 1384 992 1410 c 0
 965 1426 912 1434 832 1434 c 256
 752 1434 700 1427 677 1413 c 0
 631 1385 608 1328 608 1242 c 1
 448 1242 l 1
EndSplineSet
Refer: 80 111 N 1 0 0 1 32 0 2
EndChar

StartChar: uni0212
Encoding: 380 530 362
Width: 2048
GlyphClass: 2
Flags: HMW
LayerCount: 2
Fore
SplineSet
288 1690 m 1
 288 1925 429 2010 672 2010 c 256
 915 2010 1056 1926 1056 1690 c 1
 896 1690 l 1
 896 1776 875 1832 832 1858 c 0
 805 1874 752 1882 672 1882 c 256
 592 1882 540 1875 517 1861 c 0
 471 1833 448 1776 448 1690 c 1
 288 1690 l 1
EndSplineSet
Refer: 51 82 N 1 0 0 1 -63 0 2
EndChar

StartChar: uni0213
Encoding: 381 531 363
Width: 1408
GlyphClass: 2
Flags: HMW
LayerCount: 2
Fore
SplineSet
320 1242 m 1
 320 1477 461 1562 704 1562 c 256
 947 1562 1088 1478 1088 1242 c 1
 928 1242 l 1
 928 1328 907 1384 864 1410 c 0
 837 1426 784 1434 704 1434 c 256
 624 1434 572 1427 549 1413 c 0
 503 1385 480 1328 480 1242 c 1
 320 1242 l 1
EndSplineSet
Refer: 83 114 N 1 0 0 1 0 0 2
EndChar

StartChar: uni0216
Encoding: 384 534 366
Width: 2113
GlyphClass: 2
Flags: HMW
LayerCount: 2
Fore
SplineSet
673 1690 m 1
 673 1925 814 2010 1057 2010 c 256
 1300 2010 1441 1926 1441 1690 c 1
 1281 1690 l 1
 1281 1776 1260 1832 1217 1858 c 0
 1190 1874 1137 1882 1057 1882 c 256
 977 1882 925 1875 902 1861 c 0
 856 1833 833 1776 833 1690 c 1
 673 1690 l 1
EndSplineSet
Refer: 54 85 N 1 0 0 1 0 0 2
EndChar

StartChar: uni0217
Encoding: 385 535 367
Width: 1602
GlyphClass: 2
Flags: HMW
LayerCount: 2
Fore
SplineSet
416 1242 m 1
 416 1477 557 1562 800 1562 c 256
 1043 1562 1184 1478 1184 1242 c 1
 1024 1242 l 1
 1024 1328 1003 1384 960 1410 c 0
 933 1426 880 1434 800 1434 c 256
 720 1434 668 1427 645 1413 c 0
 599 1385 576 1328 576 1242 c 1
 416 1242 l 1
EndSplineSet
Refer: 86 117 N 1 0 0 1 0 0 2
EndChar

StartChar: uni0237
Encoding: 400 567 382
Width: 608
GlyphClass: 2
Flags: HMW
LayerCount: 2
Fore
SplineSet
288 -64 m 2
 288 1088 l 1
 480 1088 l 1
 480 -64 l 2
 480 -165 471 -243 424 -298 c 0
 374 -356 275 -384 128 -384 c 1
 128 -224 l 1
 257 -224 288 -193 288 -64 c 2
EndSplineSet
EndChar

StartChar: circumflex
Encoding: 403 710 383
Width: 1088
GlyphClass: 2
Flags: HMW
LayerCount: 2
Fore
SplineSet
832 1280 m 1
 544 1728 l 1
 256 1280 l 1
 128 1376 l 1
 448 1856 l 1
 640 1856 l 1
 960 1376 l 1
 832 1280 l 1
EndSplineSet
EndChar

StartChar: caron
Encoding: 404 711 384
Width: 1088
GlyphClass: 2
Flags: HMW
LayerCount: 2
Fore
SplineSet
544 1408 m 1
 832 1856 l 1
 960 1760 l 1
 640 1280 l 1
 448 1280 l 1
 128 1760 l 1
 256 1856 l 1
 544 1408 l 1
EndSplineSet
EndChar

StartChar: breve
Encoding: 406 728 385
Width: 1280
GlyphClass: 2
Flags: HMW
LayerCount: 2
Fore
SplineSet
256 1600 m 1
 416 1600 l 1
 416 1514 439 1457 485 1429 c 0
 508 1415 560 1408 640 1408 c 256
 720 1408 773 1416 800 1432 c 0
 843 1458 864 1514 864 1600 c 1
 1024 1600 l 1
 1024 1364 883 1280 640 1280 c 256
 397 1280 256 1364 256 1600 c 1
EndSplineSet
EndChar

StartChar: dotaccent
Encoding: 407 729 386
Width: 448
GlyphClass: 2
Flags: HMW
LayerCount: 2
Fore
SplineSet
320 1536 m 1
 320 1344 l 1
 128 1344 l 1
 128 1536 l 1
 320 1536 l 1
EndSplineSet
EndChar

StartChar: ring
Encoding: 408 730 387
Width: 1280
GlyphClass: 2
Flags: HMW
LayerCount: 2
Fore
SplineSet
992 1600 m 256
 992 1395 849 1280 640 1280 c 256
 419 1280 288 1403 288 1600 c 256
 288 1805 431 1920 640 1920 c 256
 861 1920 992 1797 992 1600 c 256
640 1792 m 256
 567 1792 512 1768 476 1722 c 0
 457 1698 448 1657 448 1600 c 256
 448 1472 506 1408 640 1408 c 256
 713 1408 768 1432 804 1478 c 0
 823 1502 832 1543 832 1600 c 256
 832 1728 774 1792 640 1792 c 256
EndSplineSet
EndChar

StartChar: ogonek
Encoding: 409 731 388
Width: 640
GlyphClass: 2
Flags: HMW
LayerCount: 2
Fore
SplineSet
320 -224 m 0
 320 -330 398 -352 512 -352 c 1
 512 -512 l 1
 339 -512 222 -467 161 -377 c 0
 139 -344 128 -310 128 -274 c 128
 128 -204 142 -167 168 -125 c 0
 213 -53 285 10 384 64 c 1
 512 64 l 1
 384 -21 320 -117 320 -224 c 0
EndSplineSet
EndChar

StartChar: tilde
Encoding: 410 732 389
Width: 1152
GlyphClass: 2
Flags: HMW
LayerCount: 2
Fore
SplineSet
320 1344 m 1
 128 1344 l 1
 128 1509 238 1601 384 1601 c 0
 455 1601 528 1584 603 1552 c 0
 647 1533 701 1504 754 1504 c 128
 818 1504 832 1521 832 1600 c 1
 1024 1600 l 1
 1024 1512 993 1444 932 1398 c 0
 884 1362 829 1344 768 1344 c 0
 698 1344 625 1360 549 1392 c 0
 505 1411 451 1440 398 1440 c 128
 330 1440 320 1422 320 1344 c 1
EndSplineSet
EndChar

StartChar: hungarumlaut
Encoding: 411 733 390
Width: 1512
GlyphClass: 2
Flags: HMW
LayerCount: 2
Fore
SplineSet
832 1664 m 1
 192 1280 l 1
 128 1376 l 1
 704 1856 l 1
 832 1664 l 1
1385 1664 m 1
 745 1280 l 1
 681 1376 l 1
 1257 1856 l 1
 1385 1664 l 1
EndSplineSet
EndChar

StartChar: uni03A9
Encoding: 420 937 391
Width: 1472
GlyphClass: 2
Flags: HMW
LayerCount: 2
Fore
SplineSet
1344 671 m 0
 1344 392 1259 222 1088 160 c 1
 1280 160 l 1
 1280 0 l 1
 896 0 l 1
 896 224 l 1
 978 224 1031 242 1072 294 c 0
 1125 361 1152 487 1152 671 c 0
 1152 840 1140 960 1116 1031 c 0
 1092 1101 1049 1145 986 1164 c 0
 944 1177 861 1183 736 1183 c 256
 611 1183 530 1177 494 1166 c 128
 419 1143 381 1105 356 1031 c 0
 332 960 320 856 320 721 c 128
 320 586 327 488 342 429 c 128
 374 298 426 224 576 224 c 1
 576 0 l 1
 192 0 l 1
 192 160 l 1
 384 160 l 1
 213 222 128 392 128 671 c 0
 128 932 170 1109 255 1202 c 0
 352 1309 522 1342 736 1342 c 256
 1039 1342 1213 1284 1291 1076 c 0
 1326 982 1344 847 1344 671 c 0
EndSplineSet
EndChar

StartChar: pi
Encoding: 422 960 392
Width: 448
GlyphClass: 2
Flags: HMW
LayerCount: 2
Fore
SplineSet
128 1088 m 1
 320 1088 l 1
 320 0 l 1
 128 0 l 1
 128 1088 l 1
320 1344 m 1
 128 1344 l 1
 128 1536 l 1
 320 1536 l 1
 320 1344 l 1
128 1088 m 1
 128 0 l 1
 320 0 l 1
 320 1088 l 1
 128 1088 l 1
320 1344 m 1
 320 1536 l 1
 128 1536 l 1
 128 1344 l 1
 320 1344 l 1
EndSplineSet
EndChar

StartChar: endash
Encoding: 449 8211 393
Width: 1088
GlyphClass: 2
Flags: HMW
LayerCount: 2
Fore
SplineSet
128 512 m 1
 128 672 l 1
 960 672 l 1
 960 512 l 1
 128 512 l 1
EndSplineSet
EndChar

StartChar: emdash
Encoding: 450 8212 394
Width: 1088
GlyphClass: 2
Flags: HMW
LayerCount: 2
Fore
SplineSet
0 512 m 1
 0 672 l 1
 1088 672 l 1
 1088 512 l 1
 0 512 l 1
EndSplineSet
EndChar

StartChar: quoteleft
Encoding: 452 8216 395
Width: 512
GlyphClass: 2
Flags: HMW
LayerCount: 2
Fore
SplineSet
128 1152 m 1
 192 1536 l 1
 384 1536 l 1
 256 1152 l 1
 128 1152 l 1
EndSplineSet
EndChar

StartChar: quoteright
Encoding: 453 8217 396
Width: 512
GlyphClass: 2
Flags: HMW
LayerCount: 2
Fore
SplineSet
128 1152 m 1
 192 1536 l 1
 384 1536 l 1
 256 1152 l 1
 128 1152 l 1
EndSplineSet
EndChar

StartChar: quotesinglbase
Encoding: 454 8218 397
Width: 448
GlyphClass: 2
Flags: HMW
LayerCount: 2
Fore
SplineSet
64 -256 m 1
 128 128 l 1
 320 128 l 1
 192 -256 l 1
 64 -256 l 1
EndSplineSet
EndChar

StartChar: quotedblleft
Encoding: 455 8220 398
Width: 768
GlyphClass: 2
Flags: HMW
LayerCount: 2
Fore
SplineSet
384 1152 m 1
 448 1536 l 1
 640 1536 l 1
 512 1152 l 1
 384 1152 l 1
128 1152 m 1
 192 1536 l 1
 384 1536 l 1
 256 1152 l 1
 128 1152 l 1
EndSplineSet
EndChar

StartChar: quotedblright
Encoding: 456 8221 399
Width: 832
GlyphClass: 2
Flags: HMW
LayerCount: 2
Fore
SplineSet
128 1152 m 1
 192 1536 l 1
 384 1536 l 1
 256 1152 l 1
 128 1152 l 1
448 1152 m 1
 512 1536 l 1
 704 1536 l 1
 576 1152 l 1
 448 1152 l 1
EndSplineSet
EndChar

StartChar: quotedblbase
Encoding: 457 8222 400
Width: 832
GlyphClass: 2
Flags: HMW
LayerCount: 2
Fore
SplineSet
128 -192 m 1
 192 192 l 1
 384 192 l 1
 256 -192 l 1
 128 -192 l 1
448 -192 m 1
 512 192 l 1
 704 192 l 1
 576 -192 l 1
 448 -192 l 1
EndSplineSet
EndChar

StartChar: dagger
Encoding: 458 8224 401
Width: 960
GlyphClass: 2
Flags: HMW
LayerCount: 2
Fore
SplineSet
832 928 m 1
 576 928 l 1
 576 -128 l 1
 384 -128 l 1
 384 928 l 1
 128 928 l 1
 128 1088 l 1
 384 1088 l 1
 384 1600 l 1
 576 1600 l 1
 576 1088 l 1
 832 1088 l 1
 832 928 l 1
EndSplineSet
EndChar

StartChar: daggerdbl
Encoding: 459 8225 402
Width: 960
GlyphClass: 2
Flags: HMW
LayerCount: 2
Fore
SplineSet
832 320 m 1
 576 320 l 1
 576 -128 l 1
 384 -128 l 1
 384 320 l 1
 128 320 l 1
 128 480 l 1
 384 480 l 1
 384 928 l 1
 128 928 l 1
 128 1088 l 1
 384 1088 l 1
 384 1600 l 1
 576 1600 l 1
 576 1088 l 1
 832 1088 l 1
 832 928 l 1
 576 928 l 1
 576 480 l 1
 832 480 l 1
 832 320 l 1
EndSplineSet
EndChar

StartChar: bullet
Encoding: 460 8226 403
Width: 1280
GlyphClass: 2
Flags: HMW
LayerCount: 2
Fore
SplineSet
384 512 m 256
 384 683 469 768 640 768 c 256
 810 768 896 683 896 512 c 256
 896 342 805 256 640 256 c 256
 470 256 384 340 384 512 c 256
EndSplineSet
EndChar

StartChar: guilsinglleft
Encoding: 463 8249 406
Width: 896
GlyphClass: 2
Flags: HMW
LayerCount: 2
Fore
SplineSet
256 608 m 1
 768 256 l 1
 672 128 l 1
 128 512 l 1
 128 704 l 1
 672 1088 l 1
 768 960 l 1
 256 608 l 1
EndSplineSet
EndChar

StartChar: guilsinglright
Encoding: 464 8250 407
Width: 896
GlyphClass: 2
Flags: HMW
LayerCount: 2
Fore
SplineSet
128 256 m 1
 640 608 l 1
 128 960 l 1
 224 1088 l 1
 768 704 l 1
 768 512 l 1
 224 128 l 1
 128 256 l 1
EndSplineSet
EndChar

StartChar: fraction
Encoding: 465 8260 408
Width: 1023
GlyphClass: 2
Flags: HMW
LayerCount: 2
Fore
SplineSet
64 0 m 1
 768 1536 l 1
 960 1536 l 1
 256 0 l 1
 64 0 l 1
EndSplineSet
EndChar

StartChar: uni2074
Encoding: 466 8308 409
Width: 1472
GlyphClass: 2
Flags: HMW
LayerCount: 2
Fore
SplineSet
1344 192 m 1
 1152 192 l 1
 1152 0 l 1
 960 0 l 1
 960 192 l 1
 128 192 l 1
 128 384 l 1
 896 1088 l 1
 1152 1088 l 1
 1152 352 l 1
 1344 352 l 1
 1344 192 l 1
320 352 m 1
 960 352 l 1
 960 960 l 1
 320 352 l 1
EndSplineSet
EndChar

StartChar: Euro
Encoding: 467 8364 410
Width: 2042
GlyphClass: 2
Flags: HMW
LayerCount: 2
Fore
SplineSet
1133 0 m 1
 816 0 l 2
 765 0 662 7 600 9 c 128
 429 15 315 55 237 165 c 0
 134 310 129 552 129 800 c 128
 129 869 129 869 129 927 c 0
 129 1065 141 1180 166 1272 c 0
 207 1423 327 1519 497 1547 c 128
 585 1562 650 1563 732 1563 c 0
 753 1563 776 1563 800 1563 c 0
 838 1563 880 1563 920 1563 c 0
 995 1563 1069 1564 1133 1569 c 1
 1264 1569 l 1
 1373 1563 1415 1559 1502 1552 c 128
 1655 1539 1751 1497 1820 1385 c 0
 1882 1285 1913 1130 1913 919 c 2
 1913 632 l 2
 1913 574 1908 499 1899 408 c 0
 1868 130 1750 22 1459 6 c 1
 1133 0 l 1
1412 169 m 0
 1543 176 1629 208 1670 266 c 0
 1704 313 1721 393 1721 504 c 2
 1721 1071 l 2
 1721 1258 1644 1390 1471 1395 c 1
 1289 1404 1144 1409 1037 1409 c 2
 981 1409 l 1
 801 1403 l 2
 774 1402 734 1401 681 1401 c 128
 628 1401 575 1394 520 1382 c 0
 412 1358 352 1298 338 1202 c 0
 325 1102 318 1037 318 1008 c 2
 318 664 l 2
 318 634 325 534 328 488 c 128
 336 359 366 265 439 213 c 0
 477 186 564 170 700 164 c 0
 784 160 845 158 928 158 c 2
 1120 158 l 2
 1242 158 1256 160 1412 169 c 0
1006 1437 m 128
 1006 1435 1006 1434 1008 1434 c 128
 1010 1434 1011 1435 1011 1437 c 128
 1011 1439 1010 1440 1008 1440 c 128
 1006 1440 1006 1439 1006 1437 c 128
EndSplineSet
EndChar

StartChar: trademark
Encoding: 469 8482 411
Width: 2752
GlyphClass: 2
Flags: HMW
LayerCount: 2
Fore
SplineSet
128 1536 m 1
 1088 1536 l 1
 1088 1408 l 1
 704 1408 l 1
 704 704 l 1
 512 704 l 1
 512 1408 l 1
 128 1408 l 1
 128 1536 l 1
1823 704 m 1
 1408 1408 l 1
 1408 704 l 1
 1216 704 l 1
 1216 1536 l 1
 1536 1536 l 1
 1920 864 l 1
 2318 1536 l 1
 2624 1536 l 1
 2624 704 l 1
 2432 704 l 1
 2432 1387 l 1
 2017 704 l 1
 1823 704 l 1
EndSplineSet
EndChar

StartChar: Omega
Encoding: 470 8486 412
Width: 1472
GlyphClass: 2
Flags: HMW
LayerCount: 2
Fore
SplineSet
128 671 m 0
 128 847 146 982 181 1076 c 0
 259 1284 433 1342 736 1342 c 256
 950 1342 1120 1309 1217 1202 c 0
 1302 1109 1344 932 1344 671 c 0
 1344 392 1259 222 1088 160 c 1
 1280 160 l 1
 1280 0 l 1
 896 0 l 1
 896 224 l 1
 1046 224 1098 298 1130 429 c 128
 1145 488 1152 586 1152 721 c 128
 1152 856 1140 960 1116 1031 c 0
 1091 1105 1053 1143 978 1166 c 128
 942 1177 861 1183 736 1183 c 256
 611 1183 528 1177 486 1164 c 0
 423 1145 380 1101 356 1031 c 0
 332 960 320 840 320 671 c 0
 320 487 347 361 400 294 c 0
 441 242 494 224 576 224 c 1
 576 0 l 1
 192 0 l 1
 192 160 l 1
 384 160 l 1
 213 222 128 392 128 671 c 0
EndSplineSet
EndChar

StartChar: partialdiff
Encoding: 472 8706 413
Width: 1984
GlyphClass: 2
Flags: HMW
LayerCount: 2
Fore
SplineSet
1152 928 m 2
 1387 928 1558 896 1664 832 c 1
 1664 1014 1651 1140 1624 1208 c 0
 1592 1290 1526 1345 1427 1372 c 0
 1341 1396 1185 1408 960 1408 c 256
 670 1408 489 1379 416 1322 c 0
 352 1272 352 1219 352 1120 c 1
 192 1120 l 1
 192 1229 204 1305 227 1348 c 128
 276 1439 338 1481 448 1515 c 0
 564 1550 713 1568 895 1568 c 128
 1077 1568 1218 1561 1316 1548 c 128
 1569 1515 1737 1437 1808 1231 c 0
 1840 1139 1856 984 1856 768 c 0
 1856 749 1856 731 1856 712 c 0
 1856 495 1853 297 1768 164 c 128
 1740 120 1700 83 1648 54 c 0
 1544 -4 1378 -32 1152 -32 c 2
 831 -32 l 2
 556 -32 367 8 264 88 c 0
 165 165 128 278 128 448 c 256
 128 618 165 731 264 808 c 0
 367 888 556 928 831 928 c 2
 1152 928 l 2
831 768 m 2
 681 768 578 761 524 748 c 128
 434 726 388 706 354 644 c 0
 332 603 320 538 320 448 c 256
 320 356 329 295 346 263 c 128
 381 200 423 173 500 154 c 0
 570 137 680 128 831 128 c 2
 1152 128 l 2
 1394 128 1593 137 1643 317 c 128
 1657 367 1664 427 1664 496 c 128
 1664 624 1649 690 1566 728 c 128
 1528 745 1476 756 1409 761 c 128
 1342 766 1257 768 1152 768 c 2
 831 768 l 2
EndSplineSet
EndChar

StartChar: Delta
Encoding: 474 8710 414
Width: 1664
GlyphClass: 2
Flags: HMW
LayerCount: 2
Fore
SplineSet
128 -1 m 1
 704 1536 l 1
 960 1536 l 1
 1536 -1 l 1
 128 -1 l 1
1280 159 m 1
 832 1408 l 1
 384 159 l 1
 1280 159 l 1
EndSplineSet
EndChar

StartChar: product
Encoding: 475 8719 415
Width: 1792
GlyphClass: 2
Flags: HMW
LayerCount: 2
Fore
SplineSet
1664 0 m 1
 1472 0 l 1
 1472 1376 l 1
 320 1376 l 1
 320 0 l 1
 128 0 l 1
 128 1536 l 1
 1664 1536 l 1
 1664 0 l 1
EndSplineSet
EndChar

StartChar: summation
Encoding: 476 8721 416
Width: 1664
GlyphClass: 2
Flags: HMW
LayerCount: 2
Fore
SplineSet
864 736 m 1
 320 160 l 1
 1536 160 l 1
 1536 0 l 1
 128 0 l 1
 128 176 l 1
 704 784 l 1
 128 1360 l 1
 128 1536 l 1
 1536 1536 l 1
 1536 1376 l 1
 320 1376 l 1
 864 832 l 1
 864 736 l 1
EndSplineSet
EndChar

StartChar: minus
Encoding: 477 8722 417
Width: 1472
GlyphClass: 2
Flags: HMW
LayerCount: 2
Fore
SplineSet
128 512 m 1
 128 672 l 1
 1344 672 l 1
 1344 512 l 1
 128 512 l 1
EndSplineSet
EndChar

StartChar: radical
Encoding: 480 8730 418
Width: 1632
GlyphClass: 2
Flags: HMW
LayerCount: 2
Fore
SplineSet
128 896 m 1
 352 896 l 1
 768 128 l 1
 1280 1536 l 1
 1504 1536 l 1
 896 0 l 1
 640 0 l 1
 128 896 l 1
EndSplineSet
EndChar

StartChar: infinity
Encoding: 481 8734 419
Width: 2496
GlyphClass: 2
Flags: HMW
LayerCount: 2
Fore
SplineSet
128 544 m 256
 128 914 283 1120 642 1120 c 0
 821 1120 987 1028 1139 844 c 0
 1182 792 1222 740 1259 687 c 1
 1457 976 1656 1120 1854 1120 c 0
 2213 1120 2368 913 2368 544 c 256
 2368 174 2213 -32 1854 -32 c 0
 1652 -32 1451 110 1251 393 c 1
 1050 110 847 -32 642 -32 c 0
 283 -32 128 175 128 544 c 256
320 568 m 128
 320 296 390 128 646 128 c 128
 688 128 732 140 778 164 c 128
 824 188 869 220 914 259 c 0
 990 325 1071 417 1156 535 c 1
 1071 663 1000 754 945 806 c 128
 890 858 838 897 791 922 c 128
 744 947 700 960 661 960 c 128
 506 960 419 928 368 822 c 0
 336 757 320 672 320 568 c 128
1854 128 m 0
 2097 128 2176 285 2176 544 c 0
 2176 720 2142 837 2075 896 c 0
 2013 950 1949 960 1842 960 c 128
 1807 960 1767 948 1722 923 c 128
 1677 898 1633 866 1590 827 c 0
 1513 757 1434 664 1355 548 c 1
 1551 268 1717 128 1854 128 c 0
EndSplineSet
EndChar

StartChar: integral
Encoding: 482 8747 420
Width: 1089
GlyphClass: 2
Flags: HMW
LayerCount: 2
Fore
SplineSet
449 1152 m 2
 449 1311 486 1420 561 1480 c 0
 634 1539 768 1568 961 1568 c 1
 961 1408 l 1
 942 1408 924 1408 906 1408 c 0
 781 1408 688 1402 657 1300 c 128
 646 1265 641 1216 641 1152 c 2
 641 128 l 2
 641 -31 604 -140 529 -200 c 0
 456 -259 322 -288 128 -288 c 1
 129 -128 l 1
 148 -128 166 -128 184 -128 c 0
 309 -128 402 -122 433 -20 c 128
 444 15 449 64 449 128 c 2
 449 1152 l 2
EndSplineSet
EndChar

StartChar: approxequal
Encoding: 483 8776 421
Width: 1152
GlyphClass: 2
Flags: HMW
LayerCount: 2
Fore
SplineSet
754 607 m 128
 823 607 832 630 832 703 c 1
 1024 703 l 1
 1024 615 993 548 932 502 c 0
 884 466 833 447 778 447 c 128
 638 447 565 490 468 528 c 128
 442 538 418 543 398 543 c 128
 329 543 320 521 320 447 c 1
 128 447 l 1
 128 539 159 607 220 652 c 0
 267 686 318 703 373 703 c 128
 513 703 587 660 684 622 c 128
 710 612 734 607 754 607 c 128
754 992 m 128
 823 992 832 1015 832 1088 c 1
 1024 1088 l 1
 1024 1000 993 932 932 886 c 0
 884 850 833 832 778 832 c 128
 638 832 565 875 468 913 c 128
 442 923 418 928 398 928 c 128
 329 928 320 906 320 832 c 1
 128 832 l 1
 128 924 159 991 220 1036 c 0
 267 1070 318 1088 373 1088 c 128
 513 1088 587 1045 684 1007 c 128
 710 997 734 992 754 992 c 128
EndSplineSet
EndChar

StartChar: notequal
Encoding: 484 8800 422
Width: 1472
GlyphClass: 2
Flags: HMW
LayerCount: 2
Fore
SplineSet
384 -64 m 1
 992 1472 l 1
 1152 1408 l 1
 544 -128 l 1
 384 -64 l 1
128 864 m 1
 128 1024 l 1
 1344 1024 l 1
 1344 864 l 1
 128 864 l 1
128 320 m 1
 128 480 l 1
 1344 480 l 1
 1344 320 l 1
 128 320 l 1
EndSplineSet
EndChar

StartChar: lessequal
Encoding: 485 8804 423
Width: 1152
GlyphClass: 2
Flags: HMW
LayerCount: 2
Fore
SplineSet
1024 1472 m 1
 1024 1216 l 1
 272 832 l 1
 1024 448 l 1
 1024 192 l 1
 128 736 l 1
 128 928 l 1
 1024 1472 l 1
128 128 m 1
 1022 128 l 1
 1022 -32 l 1
 128 -32 l 1
 128 128 l 1
EndSplineSet
EndChar

StartChar: greaterequal
Encoding: 486 8805 424
Width: 1152
GlyphClass: 2
Flags: HMW
LayerCount: 2
Fore
SplineSet
1024 928 m 1
 1024 736 l 1
 128 192 l 1
 128 448 l 1
 880 832 l 1
 128 1216 l 1
 128 1472 l 1
 1024 928 l 1
128 128 m 1
 1022 128 l 1
 1022 -32 l 1
 128 -32 l 1
 128 128 l 1
EndSplineSet
EndChar

StartChar: lozenge
Encoding: 487 9674 425
Width: 1280
GlyphClass: 2
Flags: HMW
LayerCount: 2
Fore
SplineSet
1152 768 m 1
 704 0 l 1
 576 0 l 1
 128 768 l 1
 576 1536 l 1
 704 1536 l 1
 1152 768 l 1
352 768 m 1
 640 256 l 1
 928 768 l 1
 640 1280 l 1
 352 768 l 1
EndSplineSet
EndChar

StartChar: uni00AD
Encoding: 110 173 440
Width: 1024
Flags: HW
LayerCount: 2
Fore
SplineSet
128 672 m 1
 896 672 l 1
 896 512 l 1
 128 512 l 1
 128 672 l 1
EndSplineSet
EndChar

StartChar: hbar
Encoding: 232 295 441
Width: 1601
Flags: HW
LayerCount: 2
Fore
SplineSet
320 970 m 1
 381 1113 573 1184 896 1184 c 0
 1138 1184 1298 1138 1377 1047 c 0
 1454 958 1473 820 1473 650 c 2
 1472 0 l 1
 1280 0 l 1
 1280 650 l 2
 1280 782 1267 879 1200 941 c 0
 1140 996 1017 1024 832 1024 c 0
 551 1024 388 963 342 841 c 0
 328 803 320 761 320 714 c 2
 320 0 l 1
 128 0 l 1
 128 1536 l 1
 320 1536 l 1
 320 970 l 1
EndSplineSet
EndChar

StartChar: Hbar
Encoding: 231 294 442
Width: 2176
Flags: HW
LayerCount: 2
Fore
SplineSet
1792 1536 m 1
 1984 1536 l 1
 1984 0 l 1
 1792 0 l 1
 1792 704 l 1
 384 704 l 1
 384 0 l 1
 192 0 l 1
 192 1536 l 1
 384 1536 l 1
 384 864 l 1
 1792 864 l 1
 1792 1536 l 1
EndSplineSet
EndChar

